<svg width="500" height="500" viewBox="0 0 500 500" fill="none" xmlns="http://www.w3.org/2000/svg">
<path d="M250 488.56C381.45 488.56 488.01 425.168 488.01 346.97C488.01 268.772 381.45 205.38 250 205.38C118.551 205.38 11.9902 268.772 11.9902 346.97C11.9902 425.168 118.551 488.56 250 488.56Z" fill="#F5F5F5"/>
<path d="M378.461 339.15L456.921 293.89C460.021 292.11 460.021 289.21 456.921 287.42L343.701 221.92C341.962 221.037 340.04 220.577 338.091 220.577C336.141 220.577 334.219 221.037 332.481 221.92L254.001 267.18C250.901 268.97 250.901 271.87 254.001 273.65L367.221 339.15C368.962 340.036 370.887 340.498 372.841 340.498C374.794 340.498 376.72 340.036 378.461 339.15Z" fill="#E0E0E0"/>
<path d="M178.791 449.6L61.2208 381.82C57.9108 379.91 57.9108 376.82 61.2208 374.9L224.791 280.45C226.65 279.507 228.706 279.015 230.791 279.015C232.876 279.015 234.931 279.507 236.791 280.45L354.361 348.23C357.671 350.14 357.671 353.23 354.361 355.15L190.781 449.6C188.923 450.542 186.869 451.033 184.786 451.033C182.703 451.033 180.649 450.542 178.791 449.6Z" fill="#E0E0E0"/>
<path d="M90.4202 445.9C108.745 445.9 123.6 437.322 123.6 426.74C123.6 416.158 108.745 407.58 90.4202 407.58C72.0954 407.58 57.2402 416.158 57.2402 426.74C57.2402 437.322 72.0954 445.9 90.4202 445.9Z" fill="#E0E0E0"/>
<path d="M242.54 438.81L242.65 438.68L248.57 432.18V432.13C248.601 432.088 248.638 432.051 248.68 432.02L248.74 431.95C249.59 431.14 250.93 431.07 252.44 431.95C253.787 432.825 254.909 434.006 255.716 435.396C256.522 436.786 256.989 438.346 257.08 439.95C257.08 441.67 256.38 442.79 255.29 443.14H255.22L254.89 443.21H254.81L246.24 445.08C245.717 445.167 245.181 445.053 244.74 444.76C243.969 444.256 243.328 443.578 242.867 442.781C242.407 441.984 242.141 441.089 242.09 440.17C242.086 439.679 242.244 439.201 242.54 438.81Z" fill="#E0E0E0"/>
<path d="M381.101 378.94L256.331 451.05L239.051 454.57C238.952 454.589 238.85 454.581 238.757 454.544C238.663 454.508 238.582 454.446 238.522 454.365C238.462 454.285 238.427 454.189 238.419 454.089C238.412 453.989 238.433 453.888 238.481 453.8L243.891 443.87L368.671 371.75C372.081 369.78 383.771 377.4 381.101 378.94Z" fill="#E0E0E0"/>
<path d="M310.1 437.84C311.35 441.24 314.98 443.36 321.04 444.15L429.12 381.21L440.34 369.84C440.478 369.701 440.565 369.52 440.588 369.326C440.61 369.131 440.566 368.935 440.464 368.768C440.361 368.602 440.205 368.475 440.021 368.408C439.837 368.341 439.635 368.338 439.45 368.4L418.79 375.24L310.1 437.84Z" fill="#E0E0E0"/>
<path d="M440.751 290.74L371.161 330.04L264.291 268.71L333.871 229.41L440.751 290.74Z" fill="#3F8CFE"/>
<path opacity="0.6" d="M440.751 290.74L371.161 330.04L264.291 268.71L333.871 229.41L440.751 290.74Z" fill="black"/>
<path d="M370.401 327.17L437.651 289C435.981 284.26 436.101 282.82 438.001 276.51L371.161 314.33C371.161 314.33 369.941 314.2 370.401 327.17Z" fill="#F5F5F5"/>
<path d="M374.419 309.11C372.634 310.264 371.146 311.824 370.079 313.663C369.012 315.502 368.395 317.567 368.279 319.69V328C368.279 331.89 371.029 333.47 374.419 331.53L440.739 293.85V290.79L375.259 327.79C373.259 328.95 371.569 328.01 371.579 325.67L371.629 318.31C371.703 317.035 372.077 315.796 372.72 314.692C373.363 313.589 374.257 312.653 375.329 311.96L440.729 274.96V271.49L374.419 309.11Z" fill="#3F8CFE"/>
<path opacity="0.5" d="M374.419 309.11C372.634 310.264 371.146 311.824 370.079 313.663C369.012 315.502 368.395 317.567 368.279 319.69V328C368.279 331.89 371.029 333.47 374.419 331.53L440.739 293.85V290.79L375.259 327.79C373.259 328.95 371.569 328.01 371.579 325.67L371.629 318.31C371.703 317.035 372.077 315.796 372.72 314.692C373.363 313.589 374.257 312.653 375.329 311.96L440.729 274.96V271.49L374.419 309.11Z" fill="black"/>
<path d="M440.74 271.44L333.87 210.11L267.56 247.78C265.774 248.934 264.285 250.494 263.216 252.332C262.148 254.171 261.529 256.237 261.41 258.36V266.63C261.41 268.57 262.09 269.94 263.21 270.58L370.08 331.9C368.96 331.26 368.28 329.9 368.28 327.96V319.68C368.398 317.558 369.016 315.493 370.083 313.655C371.15 311.816 372.636 310.256 374.42 309.1L440.74 271.44Z" fill="#3F8CFE"/>
<path opacity="0.35" d="M440.74 271.44L333.87 210.11L267.56 247.78C265.774 248.934 264.285 250.494 263.216 252.332C262.148 254.171 261.529 256.237 261.41 258.36V266.63C261.41 268.57 262.09 269.94 263.21 270.58L370.08 331.9C368.96 331.26 368.28 329.9 368.28 327.96V319.68C368.398 317.558 369.016 315.493 370.083 313.655C371.15 311.816 372.636 310.256 374.42 309.1L440.74 271.44Z" fill="black"/>
<path d="M370.07 313.66C368.97 315.475 368.351 317.54 368.27 319.66V328C368.27 329.94 368.95 331.3 370.07 331.94L263.21 270.58C262.09 269.94 261.41 268.58 261.41 266.63V258.36C261.491 256.24 262.11 254.175 263.21 252.36L370.07 313.66Z" fill="#3F8CFE"/>
<path opacity="0.45" d="M370.07 313.66C368.97 315.475 368.351 317.54 368.27 319.66V328C368.27 329.94 368.95 331.3 370.07 331.94L263.21 270.58C262.09 269.94 261.41 268.58 261.41 266.63V258.36C261.491 256.24 262.11 254.175 263.21 252.36L370.07 313.66Z" fill="black"/>
<path d="M277.65 260.54C275.65 269.19 275.65 272.54 277.65 278.91L282.73 281.85C280.73 275.51 280.73 272.13 282.73 263.48L277.65 260.54Z" fill="#3F8CFE"/>
<path d="M347.74 300.82C345.74 309.47 345.74 312.74 347.74 319.08L352.83 322.02C350.83 315.67 350.83 312.4 352.83 303.76L347.74 300.82Z" fill="#3F8CFE"/>
<path d="M454.79 270.41L385.2 309.71L278.33 248.38L347.91 209.08L454.79 270.41Z" fill="#3F8CFE"/>
<path opacity="0.4" d="M454.79 270.41L385.2 309.71L278.33 248.38L347.91 209.08L454.79 270.41Z" fill="black"/>
<path d="M384.439 306.83L451.689 268.63C450.019 263.89 450.139 261.77 452.029 255.46L385.199 293.27C385.199 293.27 383.999 293.86 384.439 306.83Z" fill="#F5F5F5"/>
<path d="M388.459 288.09C386.673 289.244 385.185 290.805 384.116 292.643C383.047 294.482 382.428 296.547 382.309 298.67V307.62C382.309 311.51 385.059 313.09 388.459 311.14L454.779 273.47V270.41L389.299 307.41C387.299 308.58 385.609 307.63 385.609 305.3L385.669 297.3C385.741 296.026 386.112 294.787 386.754 293.683C387.395 292.58 388.287 291.643 389.359 290.95L454.769 253.95V250.48L388.459 288.09Z" fill="#3F8CFE"/>
<path opacity="0.25" d="M388.459 288.09C386.673 289.244 385.185 290.805 384.116 292.643C383.047 294.482 382.428 296.547 382.309 298.67V307.62C382.309 311.51 385.059 313.09 388.459 311.14L454.779 273.47V270.41L389.299 307.41C387.299 308.58 385.609 307.63 385.609 305.3L385.669 297.3C385.741 296.026 386.112 294.787 386.754 293.683C387.395 292.58 388.287 291.643 389.359 290.95L454.769 253.95V250.48L388.459 288.09Z" fill="black"/>
<path d="M454.779 250.43L347.909 189.1L281.589 226.77C279.803 227.924 278.316 229.484 277.249 231.323C276.182 233.162 275.565 235.227 275.449 237.35V246.35C275.449 248.29 276.129 249.65 277.249 250.29L384.119 311.62C382.999 310.98 382.319 309.62 382.319 307.67V298.72C382.435 296.597 383.052 294.532 384.119 292.693C385.186 290.854 386.673 289.294 388.459 288.14L454.779 250.43Z" fill="#3F8CFE"/>
<path d="M384.109 292.65C383.007 294.464 382.387 296.529 382.309 298.65V307.6C382.309 309.54 382.989 310.91 384.109 311.55L277.249 250.24C276.129 249.6 275.449 248.24 275.449 246.3V237.3C275.527 235.179 276.147 233.114 277.249 231.3L384.109 292.65Z" fill="#3F8CFE"/>
<path opacity="0.15" d="M384.109 292.65C383.007 294.464 382.387 296.529 382.309 298.65V307.6C382.309 309.54 382.989 310.91 384.109 311.55L277.249 250.24C276.129 249.6 275.449 248.24 275.449 246.3V237.3C275.527 235.179 276.147 233.114 277.249 231.3L384.109 292.65Z" fill="black"/>
<path d="M291.68 239.52C289.68 248.17 289.68 252.24 291.68 258.58L296.77 261.52C294.77 255.17 294.77 251.11 296.77 242.46L291.68 239.52Z" fill="#3F8CFE"/>
<path d="M361.779 279.85C359.779 288.5 359.779 292.42 361.779 298.76L366.869 301.7C364.869 295.36 364.869 291.41 366.869 282.76L361.779 279.85Z" fill="#3F8CFE"/>
<g opacity="0.4">
<path d="M291.68 239.52C289.68 248.17 289.68 252.24 291.68 258.58L296.77 261.52C294.77 255.17 294.77 251.11 296.77 242.46L291.68 239.52Z" fill="white"/>
<path d="M361.779 279.85C359.779 288.5 359.779 292.42 361.779 298.76L366.869 301.7C364.869 295.36 364.869 291.41 366.869 282.76L361.779 279.85Z" fill="white"/>
</g>
<path d="M78.5 378.41L186.59 439.82L343.37 349.82L235.29 288.41L78.5 378.41Z" fill="#3F8CFE"/>
<path opacity="0.4" d="M78.5 378.41L186.59 439.82L343.37 349.82L235.29 288.41L78.5 378.41Z" fill="black"/>
<path d="M187.399 436.75L81.8094 376.51C83.5994 371.44 83.4595 369.17 81.4395 362.43L186.589 422.26C186.589 422.26 187.889 422.89 187.399 436.75Z" fill="#F5F5F5"/>
<path d="M183.1 416.72C185.009 417.952 186.599 419.618 187.741 421.582C188.883 423.546 189.544 425.752 189.67 428.02V437.58C189.67 441.75 186.73 443.43 183.1 441.35L78.5098 381.68V378.41L182.21 437.32C184.38 438.57 186.14 437.56 186.14 435.06L186.08 426.47C186.004 425.109 185.607 423.786 184.922 422.608C184.237 421.43 183.284 420.43 182.14 419.69L78.5098 360.75V357.05L183.1 416.72Z" fill="#3F8CFE"/>
<path opacity="0.3" d="M183.1 416.72C185.009 417.952 186.599 419.618 187.741 421.582C188.883 423.546 189.544 425.752 189.67 428.02V437.58C189.67 441.75 186.73 443.43 183.1 441.35L78.5098 381.68V378.41L182.21 437.32C184.38 438.57 186.14 437.56 186.14 435.06L186.08 426.47C186.004 425.109 185.607 423.786 184.922 422.608C184.237 421.43 183.284 420.43 182.14 419.69L78.5098 360.75V357.05L183.1 416.72Z" fill="black"/>
<path d="M78.5098 357.05L235.29 267.05L339.88 326.72C341.789 327.952 343.379 329.618 344.521 331.582C345.663 333.546 346.324 335.752 346.45 338.02V347.58C346.45 349.66 345.72 351.12 344.53 351.8L187.74 441.8C188.93 441.12 189.66 439.65 189.66 437.58V428C189.534 425.733 188.874 423.527 187.734 421.564C186.594 419.6 185.006 417.933 183.1 416.7L78.5098 357.05Z" fill="#3F8CFE"/>
<path opacity="0.2" d="M78.5098 357.05L235.29 267.05L339.88 326.72C341.789 327.952 343.379 329.618 344.521 331.582C345.663 333.546 346.324 335.752 346.45 338.02V347.58C346.45 349.66 345.72 351.12 344.53 351.8L187.74 441.8C188.93 441.12 189.66 439.65 189.66 437.58V428C189.534 425.733 188.874 423.527 187.734 421.564C186.594 419.6 185.006 417.933 183.1 416.7L78.5098 357.05Z" fill="black"/>
<path d="M187.75 421.59C188.93 423.533 189.591 425.748 189.67 428.02V437.59C189.67 439.66 188.94 441.13 187.75 441.81L344.54 351.81C345.73 351.13 346.46 349.67 346.46 347.59V338C346.377 335.728 345.716 333.515 344.54 331.57L187.75 421.59Z" fill="#3F8CFE"/>
<path d="M187.75 421.59C188.932 423.533 189.593 425.747 189.67 428.02V437.59C189.67 439.66 188.94 441.12 187.75 441.81L344.53 351.81C345.73 351.13 346.45 349.66 346.46 347.59V338C346.383 335.727 345.722 333.513 344.54 331.57L187.75 421.59Z" fill="#3F8CFE"/>
<path d="M329.1 340.36C331.23 349.6 331.2 353.94 329.1 360.72L323.66 363.86C325.76 357.08 325.79 352.74 323.66 343.5L329.1 340.36Z" fill="#3F8CFE"/>
<path d="M211.61 407.89C213.74 417.13 213.71 421.34 211.61 428.12L206.18 431.23C208.27 424.45 208.3 420.23 206.18 411.01L211.61 407.89Z" fill="#3F8CFE"/>
<g opacity="0.4">
<path d="M329.1 340.36C331.23 349.6 331.2 353.94 329.1 360.72L323.66 363.86C325.76 357.08 325.79 352.74 323.66 343.5L329.1 340.36Z" fill="white"/>
<path d="M211.61 407.89C213.74 417.13 213.71 421.34 211.61 428.12L206.18 431.23C208.27 424.45 208.3 420.23 206.18 411.01L211.61 407.89Z" fill="white"/>
</g>
<path d="M64.6504 357.64L172.74 419.05L329.52 329.05L221.44 267.64L64.6504 357.64Z" fill="#3F8CFE"/>
<path opacity="0.2" d="M64.6504 357.64L172.74 419.05L329.52 329.05L221.44 267.64L64.6504 357.64Z" fill="white"/>
<path d="M173.551 416L68.0009 355.74C69.7909 350.67 69.6509 349.13 67.6309 342.39L172.781 402.21C172.781 402.21 174.001 402.12 173.551 416Z" fill="#F5F5F5"/>
<path d="M169.25 396.68C171.159 397.912 172.749 399.578 173.891 401.542C175.033 403.506 175.694 405.712 175.82 407.98V416.81C175.82 420.98 172.88 422.66 169.25 420.58L64.6602 360.91V357.64L168.36 416.55C170.53 417.8 172.29 416.79 172.29 414.29L172.23 406.43C172.154 405.068 171.757 403.743 171.073 402.564C170.388 401.384 169.435 400.382 168.29 399.64L64.6602 340.71V337L169.25 396.68Z" fill="#3F8CFE"/>
<path opacity="0.4" d="M169.25 396.68C171.159 397.912 172.749 399.578 173.891 401.542C175.033 403.506 175.694 405.712 175.82 407.98V416.81C175.82 420.98 172.88 422.66 169.25 420.58L64.6602 360.91V357.64L168.36 416.55C170.53 417.8 172.29 416.79 172.29 414.29L172.23 406.43C172.154 405.068 171.757 403.743 171.073 402.564C170.388 401.384 169.435 400.382 168.29 399.64L64.6602 340.71V337L169.25 396.68Z" fill="white"/>
<path d="M64.6504 337L221.44 247L326 306.68C327.916 307.912 329.513 309.579 330.66 311.547C331.808 313.515 332.472 315.726 332.6 318V326.83C332.6 328.91 331.87 330.37 330.67 331.05L173.89 421C175.08 420.31 175.81 418.85 175.81 416.78V408C175.685 405.731 175.025 403.525 173.885 401.559C172.745 399.594 171.157 397.926 169.25 396.69L64.6504 337Z" fill="#3F8CFE"/>
<path opacity="0.85" d="M64.6504 337L221.44 247L326 306.68C327.916 307.912 329.513 309.579 330.66 311.547C331.808 313.515 332.472 315.726 332.6 318V326.83C332.6 328.91 331.87 330.37 330.67 331.05L173.89 421C175.08 420.31 175.81 418.85 175.81 416.78V408C175.685 405.731 175.025 403.525 173.885 401.559C172.745 399.594 171.157 397.926 169.25 396.69L64.6504 337Z" fill="white"/>
<path d="M173.9 401.55C175.082 403.493 175.744 405.707 175.82 407.98V416.82C175.82 418.89 175.09 420.35 173.9 421.04L330.68 331.04C331.88 330.36 332.61 328.9 332.61 326.82V318C332.53 315.727 331.865 313.512 330.68 311.57L173.9 401.55Z" fill="#3F8CFE"/>
<path opacity="0.6" d="M173.9 401.55C175.082 403.493 175.744 405.707 175.82 407.98V416.82C175.82 418.89 175.09 420.35 173.9 421.04L330.68 331.04C331.88 330.36 332.61 328.9 332.61 326.82V318C332.53 315.727 331.865 313.512 330.68 311.57L173.9 401.55Z" fill="white"/>
<path d="M315.251 320.32C317.381 329.56 317.351 333.17 315.251 339.95L309.811 343.09C311.911 336.31 311.941 332.7 309.811 323.45L315.251 320.32Z" fill="white"/>
<path d="M197.76 387.82C199.89 397.06 199.86 400.56 197.76 407.34L192.32 410.47C194.42 403.7 194.45 400.2 192.32 390.96L197.76 387.82Z" fill="white"/>
<path d="M307.852 195.93V236.63C307.852 242.49 313.002 248.35 323.222 252.82C343.702 261.82 376.912 261.82 397.392 252.82C407.642 248.33 412.752 242.46 412.752 236.58V195.93C412.872 189.93 407.752 184.03 397.402 179.49C376.922 170.49 343.712 170.49 323.232 179.49C312.852 184 307.742 190 307.862 195.93H307.852Z" fill="#37474F"/>
<path d="M307.862 195.93C307.742 189.93 312.862 184.03 323.222 179.49C343.702 170.49 376.912 170.49 397.392 179.49C407.752 184.03 412.862 189.98 412.742 195.93V214.52C412.742 209.91 408.652 206.61 396.542 211.07C376.692 218.38 365.542 230.45 345.302 236.42C328.562 241.35 313.732 239.42 307.842 233.29V195.93H307.862Z" fill="#263238"/>
<path d="M307.852 217.47V222.09C307.852 227.94 313.002 233.81 323.222 238.27C343.702 247.27 376.912 247.27 397.392 238.27C407.712 233.76 412.822 227.82 412.752 221.9V217.43C412.752 223.3 407.642 229.17 397.392 233.67C376.912 242.67 343.702 242.67 323.222 233.67C313.002 229.19 307.882 223.34 307.852 217.47Z" fill="#3F8CFE"/>
<path d="M442.711 182.95L360.301 144.02L277.881 182.95V189.44L360.301 224.05L442.711 189.44V182.95Z" fill="#37474F"/>
<path opacity="0.2" d="M360.301 224.05V217.56L442.711 182.95V189.44L360.301 224.05Z" fill="#3F8CFE"/>
<path opacity="0.2" d="M360.301 217.56L441.531 184.88L442.711 189.44V182.95L360.301 217.56Z" fill="#3F8CFE"/>
<path d="M360.301 144.02L277.881 182.95L360.301 217.56L442.711 182.95L360.301 144.02Z" fill="#455A64"/>
<path d="M316.11 214.83C316.11 214.29 315.85 201.64 317.11 198.04C318.37 194.44 323.05 190.79 332.82 185.83C339.805 182.305 347.169 179.587 354.77 177.73L355.17 179.53C347.718 181.348 340.498 184.012 333.65 187.47C324.47 192.13 319.91 195.58 318.86 198.64C317.92 201.37 317.91 211.22 317.99 214.79L316.11 214.83Z" fill="#3F8CFE"/>
<path opacity="0.8" d="M316.11 214.83C316.11 214.29 315.85 201.64 317.11 198.04C318.37 194.44 323.05 190.79 332.82 185.83C339.805 182.305 347.169 179.587 354.77 177.73L355.17 179.53C347.718 181.348 340.498 184.012 333.65 187.47C324.47 192.13 319.91 195.58 318.86 198.64C317.92 201.37 317.91 211.22 317.99 214.79L316.11 214.83Z" fill="white"/>
<path d="M326.821 253.52C326.821 244.05 325.251 227.09 320.281 222.16H313.731C308.731 227.09 307.201 244.05 307.201 253.52C307.201 254.97 308.151 256.42 310.071 257.52C312.22 258.611 314.596 259.18 317.006 259.18C319.416 259.18 321.792 258.611 323.941 257.52C325.861 256.41 326.821 254.96 326.821 253.52Z" fill="#3F8CFE"/>
<path opacity="0.5" d="M326.821 253.52C326.821 244.05 325.251 227.09 320.281 222.16H313.731C308.731 227.09 307.201 244.05 307.201 253.52C307.201 254.97 308.151 256.42 310.071 257.52C312.22 258.611 314.596 259.18 317.006 259.18C319.416 259.18 321.792 258.611 323.941 257.52C325.861 256.41 326.821 254.96 326.821 253.52Z" fill="white"/>
<path opacity="0.6" d="M313.731 222.16C313.338 222.566 312.983 223.008 312.671 223.48C313.921 224.8 315.841 225.14 317.751 225.29C319.661 225.44 321.651 226.99 322.501 234.76C323.351 242.53 325.001 252.45 321.921 255.46C318.841 258.47 311.971 258.46 308.361 256.2C308.865 256.723 309.441 257.171 310.071 257.53C312.22 258.621 314.596 259.19 317.006 259.19C319.416 259.19 321.792 258.621 323.941 257.53C325.861 256.42 326.821 254.97 326.821 253.53C326.821 244.06 325.251 227.1 320.281 222.17L313.731 222.16Z" fill="#3F8CFE"/>
<path d="M321.92 218.71C321.92 219.684 321.631 220.635 321.09 221.444C320.549 222.254 319.78 222.884 318.881 223.256C317.981 223.629 316.991 223.725 316.037 223.535C315.082 223.344 314.205 222.874 313.518 222.185C312.83 221.496 312.362 220.619 312.173 219.664C311.985 218.709 312.084 217.719 312.457 216.82C312.831 215.921 313.464 215.154 314.274 214.614C315.084 214.075 316.037 213.788 317.01 213.79C317.656 213.79 318.295 213.917 318.891 214.165C319.488 214.412 320.029 214.775 320.486 215.232C320.942 215.689 321.303 216.231 321.549 216.828C321.795 217.425 321.921 218.064 321.92 218.71Z" fill="#3F8CFE"/>
<path opacity="0.5" d="M321.92 218.71C321.92 219.684 321.631 220.635 321.09 221.444C320.549 222.254 319.78 222.884 318.881 223.256C317.981 223.629 316.991 223.725 316.037 223.535C315.082 223.344 314.205 222.874 313.518 222.185C312.83 221.496 312.362 220.619 312.173 219.664C311.985 218.709 312.084 217.719 312.457 216.82C312.831 215.921 313.464 215.154 314.274 214.614C315.084 214.075 316.037 213.788 317.01 213.79C317.656 213.79 318.295 213.917 318.891 214.165C319.488 214.412 320.029 214.775 320.486 215.232C320.942 215.689 321.303 216.231 321.549 216.828C321.795 217.425 321.921 218.064 321.92 218.71Z" fill="white"/>
<path opacity="0.4" d="M319.862 214.72C320.222 215.211 320.477 215.771 320.612 216.365C320.748 216.959 320.76 217.574 320.649 218.172C320.537 218.771 320.304 219.341 319.964 219.846C319.624 220.351 319.184 220.781 318.672 221.11C317.685 221.757 316.495 222.019 315.328 221.845C314.161 221.672 313.098 221.076 312.342 220.17C312.573 220.913 312.978 221.589 313.523 222.144C314.068 222.699 314.737 223.117 315.475 223.362C316.213 223.607 316.999 223.673 317.767 223.554C318.536 223.436 319.265 223.136 319.895 222.679C320.525 222.223 321.037 221.623 321.389 220.93C321.741 220.236 321.923 219.469 321.92 218.691C321.916 217.913 321.728 217.148 321.37 216.457C321.012 215.767 320.495 215.171 319.862 214.72Z" fill="#3F8CFE"/>
<path d="M353.67 175.38C353.726 174.799 353.936 174.243 354.276 173.769C354.617 173.295 355.077 172.919 355.61 172.68C357.062 171.945 358.667 171.563 360.295 171.563C361.923 171.563 363.527 171.945 364.98 172.68C365.513 172.919 365.973 173.295 366.314 173.769C366.654 174.243 366.863 174.799 366.92 175.38V177.55C366.864 178.131 366.656 178.688 366.315 179.162C365.974 179.637 365.513 180.012 364.98 180.25C363.527 180.985 361.923 181.367 360.295 181.367C358.667 181.367 357.062 180.985 355.61 180.25C355.077 180.012 354.616 179.637 354.275 179.162C353.934 178.688 353.725 178.131 353.67 177.55V175.38Z" fill="#263238"/>
<path d="M365 178.09C367.59 176.59 367.59 174.17 365 172.68C363.548 171.945 361.943 171.563 360.315 171.563C358.688 171.563 357.083 171.945 355.63 172.68C353.05 174.17 353.05 176.59 355.63 178.09C357.083 178.825 358.688 179.207 360.315 179.207C361.943 179.207 363.548 178.825 365 178.09Z" fill="#37474F"/>
<path d="M97.9389 373.09C103.799 372.44 114.009 371.49 122.489 383.35C132.149 396.84 128.119 416.35 118.489 425.98C106.349 437.98 84.8289 442.29 70.1089 432.86C53.8089 422.43 48.6289 398.29 56.4289 386C64.2289 373.71 79.5389 374.23 83.6689 375.21C89.8689 376.68 93.3889 373.6 97.9389 373.09Z" fill="#3F8CFE"/>
<path opacity="0.1" d="M77.5494 428.51C93.9594 434.17 114.019 428.11 124.819 416.51C123.3 420.039 121.14 423.257 118.449 426C106.309 438 84.7894 442.31 70.0694 432.88C57.7394 425 51.7994 409.17 52.9994 396.64C52.9994 400.09 59.4894 422.3 77.5494 428.51Z" fill="black"/>
<g opacity="0.1">
<path d="M104.84 377.22C108.52 376.22 114.51 378.65 118.22 383.22C122.83 388.94 124.79 397.8 124.8 404.48C124.8 417.95 113.32 426.98 111.91 426.08C110.5 425.18 118.23 415.08 110.91 402.87C103.56 390.56 98.7996 378.79 104.84 377.22Z" fill="white"/>
</g>
<g opacity="0.1">
<path d="M108.089 378.84C112.089 379.48 117.559 384.84 119.439 388.93C121.319 393.02 121.259 396.07 120.759 396.68C119.859 397.76 110.839 391.52 107.759 388.56C103.369 384.35 101.589 377.81 108.089 378.84Z" fill="white"/>
</g>
<path opacity="0.2" d="M93.8292 385.32C95.5792 383.32 97.3592 382.21 98.8292 384.48C100.299 386.75 95.4892 391.48 89.1992 390.77C82.9092 390.06 80.1992 386.48 79.9492 384.48C79.9492 384.48 83.3892 388.31 87.4992 388.11C89.8688 387.942 92.1063 386.955 93.8292 385.32Z" fill="black"/>
<path d="M88.8991 389.23C88.0336 383.649 88.0033 377.97 88.8091 372.38C90.2191 364.23 94.0991 358.04 95.2991 357.22C97.2635 356.083 99.4431 355.368 101.699 355.12C104.779 354.63 108.799 356.12 107.989 357.43C107.179 358.74 102.899 360.43 98.3791 366.38C93.8591 372.33 90.3791 382.97 91.3791 388.81C91.0456 389.104 90.6369 389.298 90.1988 389.373C89.7608 389.447 89.3107 389.397 88.8991 389.23Z" fill="#37474F"/>
<path d="M95.5085 357.09L95.7785 356.92C97.622 355.994 99.611 355.392 101.659 355.14C103.929 354.78 106.659 355.48 107.659 356.41C107.949 356.82 107.369 357.53 104.659 358.41C102.008 359.272 99.1887 359.484 96.4385 359.03C95.2685 358.75 94.6185 357.77 95.5085 357.09Z" fill="#455A64"/>
<path opacity="0.1" d="M91.2494 378.86C92.4894 371.52 98.8594 364.49 103.449 361.08C101.559 362.643 99.8574 364.422 98.3794 366.38C93.8494 372.32 90.3794 382.97 91.3794 388.81C91.0478 389.1 90.6426 389.292 90.2085 389.367C89.7744 389.441 89.3283 389.393 88.9194 389.23C88.9194 389.23 88.5594 387.13 88.3594 384.04C88.9994 386.84 90.0994 385.63 91.2494 378.86Z" fill="black"/>
<path d="M88.299 376.91C85.8595 377.703 83.2548 377.843 80.7442 377.317C78.2337 376.79 75.9047 375.616 73.989 373.91C68.809 369.06 70.329 361.34 70.329 361.34C72.3883 360.606 74.5933 360.377 76.7595 360.671C78.9256 360.965 80.9898 361.774 82.779 363.03C87.189 366.21 88.999 373.47 88.299 376.91Z" fill="#3F8CFE"/>
<path opacity="0.3" d="M88.299 376.91C85.8595 377.703 83.2548 377.843 80.7442 377.317C78.2337 376.79 75.9047 375.616 73.989 373.91C68.809 369.06 70.329 361.34 70.329 361.34C72.3883 360.606 74.5933 360.377 76.7595 360.671C78.9256 360.965 80.9898 361.774 82.779 363.03C87.189 366.21 88.999 373.47 88.299 376.91Z" fill="black"/>
<path d="M70.3301 361.37C72.3893 360.636 74.5944 360.407 76.7606 360.701C78.9267 360.995 80.9909 361.804 82.7801 363.06C87.1901 366.21 88.9601 373.47 88.3001 376.91C83.0001 366.77 70.3301 361.37 70.3301 361.37Z" fill="#3F8CFE"/>
<path opacity="0.2" d="M70.3301 361.37C72.3893 360.636 74.5944 360.407 76.7606 360.701C78.9267 360.995 80.9909 361.804 82.7801 363.06C87.1901 366.21 88.9601 373.47 88.3001 376.91C83.0001 366.77 70.3301 361.37 70.3301 361.37Z" fill="black"/>
<path d="M369.101 364.59C369.193 366.194 369.661 367.753 370.467 369.143C371.273 370.533 372.395 371.713 373.741 372.59C374.524 373.108 375.475 373.309 376.401 373.15C376.253 373.305 376.085 373.44 375.901 373.55L377.011 372.91H377.081L377.241 372.8C377.315 372.745 377.386 372.685 377.451 372.62L377.571 372.5L377.681 372.37C377.839 372.159 377.967 371.926 378.061 371.68C378.092 371.605 378.119 371.528 378.141 371.45C378.15 371.414 378.15 371.376 378.141 371.34C378.166 371.276 378.182 371.208 378.191 371.14C378.282 370.76 378.326 370.371 378.321 369.98C378.23 368.377 377.763 366.818 376.959 365.428C376.155 364.039 375.035 362.858 373.691 361.98C373.067 361.585 372.349 361.364 371.611 361.34H371.321L371.051 361.39H370.891H370.801L370.611 361.47L370.431 361.56L369.431 362.11C369.589 362.029 369.757 361.969 369.931 361.93C369.318 362.675 369.02 363.629 369.101 364.59Z" fill="#3F8CFE"/>
<path d="M249.23 431.6L255.76 443L256.87 442.36L375.87 373.61C376.054 373.5 376.223 373.365 376.37 373.21C376.982 372.487 377.29 371.555 377.23 370.61C377.138 369.006 376.67 367.447 375.864 366.057C375.058 364.667 373.937 363.487 372.59 362.61C371.968 362.222 371.254 362.005 370.52 361.98C370.322 361.979 370.124 361.999 369.93 362.04C369.757 362.079 369.589 362.139 369.43 362.22H369.35L249.23 431.6Z" fill="#F0F0F0"/>
<path d="M252.501 431.93C249.941 430.45 247.871 431.65 247.871 434.6C247.962 436.203 248.428 437.762 249.232 439.152C250.036 440.542 251.156 441.723 252.501 442.6C255.061 444.08 257.141 442.88 257.141 439.92C257.049 438.318 256.581 436.759 255.775 435.371C254.968 433.983 253.847 432.804 252.501 431.93Z" fill="#3F8CFE"/>
<path d="M318.301 396.61L318.451 396.52C318.632 396.462 318.823 396.446 319.01 396.474C319.198 396.501 319.376 396.572 319.531 396.68C320.01 396.993 320.409 397.414 320.695 397.909C320.982 398.404 321.148 398.959 321.181 399.53C321.196 399.715 321.169 399.902 321.101 400.075C321.034 400.248 320.928 400.404 320.791 400.53L320.591 400.65L250.151 441.31L245.521 438.63L318.301 396.61Z" fill="#455A64"/>
<path d="M256.721 437.51L250.181 441.29L245.551 438.61L254.411 433.5C255.452 434.661 256.239 436.027 256.721 437.51Z" fill="#37474F"/>
<path d="M240.211 441.9L245.581 436L245.721 435.84C246.095 435.535 246.563 435.369 247.046 435.369C247.528 435.369 247.996 435.535 248.371 435.84C249.323 436.462 250.115 437.299 250.683 438.284C251.251 439.269 251.579 440.375 251.641 441.51C251.704 441.971 251.616 442.44 251.391 442.847C251.166 443.255 250.815 443.578 250.391 443.77L250.181 443.82L242.311 445.53C242.015 445.575 241.713 445.511 241.461 445.35C241.027 445.065 240.666 444.683 240.407 444.233C240.148 443.783 239.999 443.278 239.971 442.76C239.935 442.453 240.021 442.144 240.211 441.9Z" fill="#3F8CFE"/>
<path opacity="0.1" d="M240.211 441.9L245.581 436L245.721 435.84C246.095 435.535 246.563 435.369 247.046 435.369C247.528 435.369 247.996 435.535 248.371 435.84C249.323 436.462 250.115 437.299 250.683 438.284C251.251 439.269 251.579 440.375 251.641 441.51C251.704 441.971 251.616 442.44 251.391 442.847C251.166 443.255 250.815 443.578 250.391 443.77L250.181 443.82L242.311 445.53C242.015 445.575 241.713 445.511 241.461 445.35C241.027 445.065 240.666 444.683 240.407 444.233C240.148 443.783 239.999 443.278 239.971 442.76C239.935 442.453 240.021 442.144 240.211 441.9Z" fill="black"/>
<path d="M239.912 442.76C239.941 443.278 240.092 443.781 240.352 444.23C240.613 444.678 240.976 445.059 241.412 445.34C241.66 445.502 241.959 445.566 242.252 445.52L246.252 444.66C246.872 444.52 247.252 443.93 247.252 442.99C247.208 442.161 246.97 441.355 246.556 440.636C246.143 439.916 245.566 439.305 244.872 438.85C244.6 438.635 244.263 438.518 243.917 438.518C243.57 438.518 243.234 438.635 242.962 438.85L242.852 438.97L240.192 441.89C240.088 442.008 240.01 442.146 239.962 442.296C239.913 442.446 239.896 442.604 239.912 442.76Z" fill="#3F8CFE"/>
<path opacity="0.1" d="M241.4 441.89C240.58 441.42 239.91 441.8 239.91 442.75C239.938 443.268 240.087 443.773 240.346 444.223C240.605 444.673 240.966 445.055 241.4 445.34C242.23 445.81 242.89 445.43 242.89 444.48C242.863 443.962 242.714 443.457 242.455 443.007C242.196 442.557 241.835 442.174 241.4 441.89Z" fill="black"/>
<path d="M359.45 372.82C359.636 372.731 359.841 372.695 360.046 372.714C360.25 372.733 360.445 372.808 360.61 372.93C361.089 373.24 361.487 373.659 361.772 374.153C362.057 374.647 362.221 375.201 362.25 375.77C362.274 375.976 362.241 376.185 362.154 376.373C362.068 376.562 361.932 376.723 361.76 376.84L320.82 400.51C320.957 400.384 321.063 400.228 321.13 400.055C321.198 399.882 321.225 399.695 321.21 399.51C321.177 398.939 321.011 398.384 320.724 397.889C320.438 397.394 320.039 396.973 319.56 396.66C319.405 396.552 319.227 396.481 319.039 396.454C318.852 396.426 318.661 396.442 318.48 396.5L359.45 372.82Z" fill="#FAFAFA"/>
<path d="M359 373.88C359.034 374.448 359.2 375.001 359.485 375.494C359.769 375.987 360.165 376.407 360.64 376.72C360.805 376.839 360.998 376.912 361.2 376.931C361.403 376.951 361.606 376.916 361.79 376.83C361.961 376.715 362.097 376.555 362.183 376.368C362.269 376.181 362.303 375.975 362.28 375.77C362.251 375.201 362.087 374.647 361.802 374.153C361.516 373.659 361.119 373.24 360.64 372.93C360.483 372.792 360.286 372.707 360.078 372.686C359.87 372.666 359.66 372.711 359.479 372.816C359.298 372.921 359.154 373.08 359.069 373.271C358.983 373.462 358.959 373.675 359 373.88Z" fill="#F5F5F5"/>
<path d="M362.642 366.86H362.702H362.772L369.612 362.86L369.772 362.77C370.234 362.591 370.733 362.529 371.226 362.59C371.718 362.651 372.187 362.833 372.592 363.12C373.807 363.912 374.818 364.979 375.543 366.236C376.267 367.492 376.685 368.902 376.762 370.35C376.816 370.869 376.731 371.393 376.515 371.868C376.299 372.343 375.959 372.751 375.532 373.05L368.612 377.05C368.142 377.246 367.631 377.319 367.125 377.264C366.62 377.208 366.137 377.024 365.722 376.73C364.508 375.937 363.498 374.869 362.774 373.613C362.049 372.357 361.631 370.948 361.552 369.5C361.499 369.004 361.572 368.503 361.762 368.042C361.953 367.581 362.255 367.175 362.642 366.86Z" fill="#3F8CFE"/>
<path opacity="0.05" d="M362.642 366.86H362.702H362.772L369.612 362.86L369.772 362.77C370.234 362.591 370.733 362.529 371.226 362.59C371.718 362.651 372.187 362.833 372.592 363.12C373.807 363.912 374.818 364.979 375.543 366.236C376.267 367.492 376.685 368.902 376.762 370.35C376.816 370.869 376.731 371.393 376.515 371.868C376.299 372.343 375.959 372.751 375.532 373.05L368.612 377.05C368.142 377.246 367.631 377.319 367.125 377.264C366.62 377.208 366.137 377.024 365.722 376.73C364.508 375.937 363.498 374.869 362.774 373.613C362.049 372.357 361.631 370.948 361.552 369.5C361.499 369.004 361.572 368.503 361.762 368.042C361.953 367.581 362.255 367.175 362.642 366.86Z" fill="black"/>
<path opacity="0.1" d="M365.67 367.1C363.37 365.77 361.5 366.84 361.5 369.5C361.579 370.948 361.998 372.357 362.722 373.613C363.447 374.869 364.456 375.937 365.67 376.73C367.97 378.06 369.84 376.98 369.84 374.32C369.761 372.874 369.342 371.466 368.618 370.212C367.893 368.957 366.883 367.891 365.67 367.1Z" fill="black"/>
<path d="M238.001 444.39L240.831 442.69C240.914 442.64 241.009 442.613 241.106 442.613C241.203 442.613 241.298 442.64 241.381 442.69C241.603 442.837 241.789 443.033 241.923 443.264C242.056 443.495 242.134 443.754 242.151 444.02C242.16 444.115 242.144 444.21 242.103 444.297C242.063 444.383 242 444.457 241.921 444.51L239.101 446.22C238.941 446.305 238.762 446.35 238.581 446.35C238.344 446.353 238.113 446.279 237.923 446.138C237.733 445.997 237.595 445.798 237.529 445.571C237.463 445.344 237.474 445.101 237.559 444.881C237.644 444.66 237.799 444.474 238.001 444.35V444.39Z" fill="#455A64"/>
<path d="M237.85 444.52L238 444.4C238.082 444.373 238.17 444.366 238.255 444.38C238.34 444.394 238.421 444.428 238.49 444.48C238.714 444.626 238.9 444.822 239.034 445.053C239.168 445.284 239.245 445.543 239.26 445.81C239.27 445.902 239.254 445.996 239.216 446.08C239.177 446.164 239.116 446.237 239.04 446.29H238.98H238.93C238.819 446.335 238.7 446.355 238.58 446.35C238.291 446.35 238.014 446.235 237.809 446.031C237.605 445.826 237.49 445.549 237.49 445.26C237.494 445.118 237.529 444.979 237.591 444.851C237.653 444.724 237.741 444.611 237.85 444.52Z" fill="#263238"/>
<path d="M419.59 367.56L438 364C438.118 363.975 438.24 363.988 438.35 364.038C438.46 364.087 438.551 364.17 438.611 364.274C438.671 364.378 438.696 364.499 438.684 364.619C438.671 364.738 438.621 364.851 438.54 364.94L426 379L419.59 367.56Z" fill="#FFA8A7"/>
<path d="M438.51 364.89C438.571 364.802 438.605 364.698 438.609 364.591C438.613 364.484 438.587 364.378 438.534 364.285C438.481 364.192 438.402 364.116 438.308 364.066C438.214 364.015 438.107 363.993 438 364L434.41 364.71C434.905 365.013 435.305 365.447 435.567 365.965C435.828 366.482 435.94 367.062 435.89 367.64V367.96L438.51 364.89Z" fill="#263238"/>
<path d="M335.69 430.75L337.19 429.89L339.01 428.89L426 379C426.609 376.976 426.427 374.795 425.49 372.9C424.19 369.98 421.66 367.68 419.56 367.54L332.56 417.36L329.09 419.36C331.46 418.21 338 429.55 335.69 430.75Z" fill="#455A64"/>
<path d="M341.42 427.48L344.78 425.55C345.78 425.02 345.2 422.55 344.04 420.07C342.51 416.73 339.49 413.49 338.18 414.18L335.7 415.6L334.83 416.13C336.14 415.43 339.16 418.67 340.69 422.02C341.8 424.43 342.36 426.78 341.52 427.41C341.509 427.428 341.495 427.444 341.478 427.456C341.46 427.468 341.441 427.476 341.42 427.48Z" fill="#EBEBEB"/>
<path d="M342.261 427C344.561 425.78 337.961 414.42 335.661 415.64L332.301 417.57C334.601 416.35 341.201 427.71 338.891 428.93L342.261 427Z" fill="#3F8CFE"/>
<path d="M335.691 430.75L339.011 428.85C341.281 427.67 335.011 416.65 332.611 417.38L332.471 417.43L329.141 419.37C331.461 418.21 338.001 429.55 335.691 430.75Z" fill="#EBEBEB"/>
<path opacity="0.15" d="M438.59 364.27L438 364L424.66 371.3L333.89 423.3C333.76 423.1 333.65 423.08 333.57 423.22C335.57 426.28 337.01 430.13 335.72 430.8L337.22 429.94L339.04 428.94L426 379L438.47 364.88C438.547 364.801 438.599 364.701 438.621 364.593C438.642 364.485 438.631 364.372 438.59 364.27Z" fill="black"/>
<path d="M321.599 438.81L335.689 430.75C336.689 430.24 336.129 427.83 334.989 425.32C333.469 421.97 330.459 418.7 329.139 419.37L314.999 427.47C312.189 429.09 314.769 435.19 317.899 437.91C319.059 438.94 320.359 439.39 321.599 438.81Z" fill="#F28F8F"/>
<path opacity="0.1" d="M322.44 434.44C321.63 431.27 319.06 428.15 316.69 427.49C316.342 427.361 315.968 427.319 315.6 427.367C315.232 427.416 314.882 427.554 314.58 427.77C312.46 429.77 314.93 435.33 317.89 437.91C318.335 438.407 318.918 438.76 319.564 438.926C320.21 439.092 320.891 439.062 321.52 438.84C322.58 438.22 323 436.6 322.44 434.44Z" fill="black"/>
<path d="M262.639 94.69L277.789 86.77C277.789 86.77 287.399 89.23 303.459 88.28C327.209 86.87 341.069 76.84 337.539 62.76C333.919 48.33 318.039 42.66 289.729 43.76C254.319 45.14 245.729 69.15 266.869 83.34L262.639 94.69Z" fill="#3F8CFE"/>
<path opacity="0.7" d="M262.639 94.69L277.789 86.77C277.789 86.77 287.399 89.23 303.459 88.28C327.209 86.87 341.069 76.84 337.539 62.76C333.919 48.33 318.039 42.66 289.729 43.76C254.319 45.14 245.729 69.15 266.869 83.34L262.639 94.69Z" fill="#3F8CFE"/>
<path d="M278.88 70.32C280.967 70.32 282.66 68.6276 282.66 66.54C282.66 64.4524 280.967 62.76 278.88 62.76C276.792 62.76 275.1 64.4524 275.1 66.54C275.1 68.6276 276.792 70.32 278.88 70.32Z" fill="white"/>
<path d="M296.639 70.32C298.727 70.32 300.419 68.6276 300.419 66.54C300.419 64.4524 298.727 62.76 296.639 62.76C294.552 62.76 292.859 64.4524 292.859 66.54C292.859 68.6276 294.552 70.32 296.639 70.32Z" fill="white"/>
<path d="M314.399 70.32C316.487 70.32 318.179 68.6276 318.179 66.54C318.179 64.4524 316.487 62.76 314.399 62.76C312.312 62.76 310.619 64.4524 310.619 66.54C310.619 68.6276 312.312 70.32 314.399 70.32Z" fill="white"/>
<path d="M72.2695 323.28C72.2695 325.86 74.2095 327.52 76.5995 328.9L174.45 385.4C175.79 386.081 177.271 386.435 178.775 386.435C180.278 386.435 181.759 386.081 183.1 385.4L341 294.26C343.39 292.88 345.33 291.1 345.33 288.52C345.33 285.94 343.39 284.33 341.01 282.95L243.1 226.46C241.761 225.779 240.281 225.425 238.78 225.425C237.278 225.425 235.798 225.779 234.46 226.46L76.5995 317.6C74.2095 319 72.2695 320.69 72.2695 323.28Z" fill="#37474F"/>
<path d="M76.5991 322.59L174.449 379.08C175.789 379.761 177.271 380.115 178.774 380.115C180.277 380.115 181.759 379.761 183.099 379.08L340.999 287.94C343.379 286.57 343.379 284.33 340.999 282.94L243.099 226.46C241.761 225.779 240.281 225.425 238.779 225.425C237.278 225.425 235.797 225.779 234.459 226.46L76.5991 317.6C74.2091 319 74.2091 321.21 76.5991 322.59Z" fill="#455A64"/>
<path d="M178.78 380.13V386.43C177.275 386.471 175.784 386.127 174.45 385.43L76.5995 328.9C74.2095 327.52 72.2695 325.9 72.2695 323.28C72.2695 320.85 74.0095 319.16 76.2695 317.79C74.4095 319.1 74.3795 321.3 76.6095 322.59L174.46 379.09C175.787 379.799 177.274 380.157 178.78 380.13Z" fill="#263238"/>
<path d="M70.3984 318.27C68.4984 317.39 67.9884 315.89 67.7984 313.27L59.3184 189.17C59.3127 187.714 59.6768 186.281 60.3764 185.004C61.076 183.727 62.0883 182.649 63.3184 181.87L221.178 90.69C223.558 89.31 225.308 88.56 227.518 90.07C229.728 91.58 229.768 92.41 229.948 95.07L238.428 219.18C238.435 220.636 238.071 222.07 237.372 223.347C236.672 224.624 235.659 225.702 234.428 226.48L76.5784 317.61C74.1884 319 72.8384 319.39 70.3984 318.27Z" fill="#37474F"/>
<path d="M229.999 95.06C229.819 92.41 227.739 91.38 225.349 92.75L67.4394 183.9C66.1704 184.665 65.1334 185.761 64.4394 187.07L60.3594 185C61.0606 183.696 62.096 182.602 63.3594 181.83L221.169 90.69C223.559 89.31 225.319 88.55 227.519 90.07C229.719 91.59 229.769 92.41 229.999 95.06Z" fill="#455A64"/>
<path d="M76.2592 317.79C74.0792 319.07 72.7092 319.23 70.3992 318.26C68.6292 317.52 67.9892 315.89 67.8092 313.26L59.3192 189.13C59.2589 187.69 59.6054 186.262 60.3192 185.01L64.4392 187.06C63.7329 188.315 63.3868 189.741 63.4392 191.18L71.9292 315.3C72.0892 317.76 74.2192 319 76.2592 317.79Z" fill="#263238"/>
<path d="M70.1793 188.64L222.099 101C223.529 100.17 224.779 100.79 224.889 102.38L232.799 218.16C232.804 219.033 232.587 219.892 232.169 220.658C231.751 221.424 231.146 222.072 230.409 222.54L78.4893 310.18C77.0593 311.01 75.8093 310.39 75.6993 308.8L67.7793 193C67.782 192.13 68.0032 191.275 68.4226 190.514C68.8419 189.752 69.446 189.107 70.1793 188.64Z" fill="black"/>
<path d="M70.1793 188.64C69.4432 189.109 68.8373 189.757 68.4178 190.522C67.9983 191.288 67.7787 192.147 67.7793 193.02L75.5693 306.87L225.749 220.19C226.486 219.722 227.091 219.074 227.509 218.308C227.927 217.542 228.144 216.683 228.139 215.81L220.359 102L70.1793 188.64Z" fill="#3F8CFE"/>
<path opacity="0.8" d="M70.1793 188.64C69.4432 189.109 68.8373 189.757 68.4178 190.522C67.9983 191.288 67.7787 192.147 67.7793 193.02L75.5693 306.87L225.749 220.19C226.486 219.722 227.091 219.074 227.509 218.308C227.927 217.542 228.144 216.683 228.139 215.81L220.359 102L70.1793 188.64Z" fill="white"/>
<path d="M90.0002 318.33L235 234.58C235.632 234.259 236.331 234.092 237.04 234.092C237.749 234.092 238.448 234.259 239.08 234.58L244.37 237.58C244.615 237.666 244.827 237.825 244.977 238.036C245.127 238.248 245.208 238.501 245.208 238.76C245.208 239.019 245.127 239.272 244.977 239.483C244.827 239.695 244.615 239.854 244.37 239.94L99.2902 323.64C98.6579 323.961 97.959 324.128 97.2502 324.128C96.5413 324.128 95.8424 323.961 95.2102 323.64L89.9502 320.64C89.7196 320.544 89.5232 320.381 89.3869 320.172C89.2505 319.963 89.1804 319.717 89.1858 319.468C89.1912 319.218 89.2719 318.976 89.4172 318.773C89.5624 318.57 89.7656 318.416 90.0002 318.33Z" fill="#263238"/>
<path d="M104.19 326.73L249.26 243C249.821 242.678 250.45 242.493 251.096 242.458C251.742 242.423 252.388 242.54 252.98 242.8L290.74 264.6C291.67 265.14 291.52 266.1 290.39 266.75L145.49 350.39C144.929 350.711 144.301 350.897 143.655 350.934C143.009 350.97 142.364 350.856 141.77 350.6L103.85 328.9C102.91 328.34 103.07 327.38 104.19 326.73Z" fill="#263238"/>
<path d="M229.9 278.16L234.44 275.54C234.63 275.42 234.65 275.25 234.44 275.15L230.09 272.65C229.987 272.598 229.874 272.571 229.76 272.571C229.645 272.571 229.532 272.598 229.43 272.65L224.89 275.27C224.7 275.38 224.68 275.55 224.89 275.65L229.24 278.16C229.342 278.212 229.455 278.239 229.57 278.239C229.684 278.239 229.797 278.212 229.9 278.16ZM223.26 269.08L218.72 271.71C218.53 271.82 218.51 271.99 218.72 272.09L223 274.6C223.101 274.653 223.215 274.681 223.33 274.681C223.445 274.681 223.558 274.653 223.66 274.6L228.2 271.98C228.39 271.87 228.41 271.7 228.2 271.6L223.85 269.09C223.757 269.047 223.657 269.024 223.556 269.023C223.454 269.021 223.353 269.04 223.26 269.08ZM208.59 277.56L200.9 282C200.71 282.12 200.69 282.29 200.9 282.39L205.25 284.89C205.352 284.942 205.465 284.969 205.58 284.969C205.694 284.969 205.807 284.942 205.91 284.89L213.6 280.45C213.79 280.34 213.81 280.17 213.6 280.07L209.26 277.56C209.155 277.509 209.041 277.483 208.925 277.483C208.809 277.483 208.694 277.509 208.59 277.56ZM216.59 272.92L212.04 275.54C211.85 275.65 211.83 275.82 212.04 275.92L216.39 278.43C216.492 278.482 216.605 278.509 216.72 278.509C216.834 278.509 216.947 278.482 217.05 278.43L221.59 275.8C221.78 275.69 221.8 275.52 221.59 275.42L217.24 272.91C217.143 272.869 217.039 272.848 216.933 272.85C216.828 272.852 216.725 272.876 216.63 272.92H216.59ZM198.81 283.2L194.26 285.83C194.07 285.94 194.05 286.11 194.26 286.21L198.6 288.72C198.701 288.773 198.815 288.801 198.93 288.801C199.045 288.801 199.158 288.773 199.26 288.72L203.8 286.1C204 285.99 204.01 285.82 203.8 285.72L199.46 283.21C199.359 283.158 199.248 283.13 199.136 283.129C199.023 283.127 198.911 283.151 198.81 283.2ZM192.17 287L187.63 289.62C187.43 289.73 187.42 289.9 187.63 290L191.97 292.51C192.072 292.562 192.185 292.589 192.3 292.589C192.414 292.589 192.527 292.562 192.63 292.51L197.17 289.88C197.37 289.77 197.38 289.6 197.17 289.5L192.83 287C192.727 286.948 192.614 286.921 192.5 286.921C192.385 286.921 192.272 286.948 192.17 287ZM209.17 297.23L213.71 294.61C213.91 294.5 213.92 294.33 213.71 294.23L209.37 291.72C209.267 291.668 209.154 291.641 209.04 291.641C208.925 291.641 208.812 291.668 208.71 291.72L204.16 294.35C203.97 294.46 203.95 294.63 204.16 294.73L208.5 297.24C208.604 297.305 208.723 297.342 208.846 297.347C208.968 297.353 209.09 297.326 209.2 297.27L209.17 297.23ZM202.53 301.07L207.07 298.44C207.27 298.33 207.28 298.16 207.07 298.06L202.73 295.56C202.627 295.508 202.514 295.481 202.4 295.481C202.285 295.481 202.172 295.508 202.07 295.56L197.53 298.18C197.33 298.29 197.32 298.46 197.53 298.56L201.87 301.07C201.972 301.133 202.089 301.17 202.21 301.177C202.33 301.184 202.45 301.161 202.56 301.11L202.53 301.07ZM195.89 304.9L200.44 302.28C200.63 302.17 200.65 302 200.44 301.9L196.1 299.39C195.997 299.338 195.884 299.311 195.77 299.311C195.655 299.311 195.542 299.338 195.44 299.39L191 302.07C190.8 302.18 190.79 302.35 191 302.45L195.34 304.96C195.432 304.996 195.532 305.014 195.632 305.01C195.731 305.007 195.829 304.983 195.92 304.94L195.89 304.9ZM189.26 308.73L193.8 306.11C193.99 306 194.01 305.83 193.8 305.73L189.45 303.22C189.347 303.168 189.234 303.141 189.12 303.141C189.005 303.141 188.892 303.168 188.79 303.22L184.25 305.85C184.06 305.96 184.04 306.13 184.25 306.23L188.6 308.73C188.702 308.793 188.819 308.83 188.94 308.837C189.06 308.844 189.18 308.821 189.29 308.77L189.26 308.73ZM223.26 281.95L227.8 279.33C227.99 279.22 228.01 279.05 227.8 278.95L223.45 276.44C223.347 276.388 223.234 276.361 223.12 276.361C223.005 276.361 222.892 276.388 222.79 276.44L218.25 279.06C218.06 279.17 218.04 279.35 218.25 279.44L222.6 282C222.702 282.052 222.815 282.079 222.93 282.079C223.044 282.079 223.157 282.052 223.26 282V281.95ZM215.84 293.4L226 287.59C226.19 287.48 226.21 287.31 226 287.21L215.45 281.12C215.347 281.068 215.234 281.041 215.12 281.041C215.005 281.041 214.892 281.068 214.79 281.12L209.55 284.12C209.35 284.23 209.34 284.4 209.55 284.5L215.13 287.72C215.31 287.82 215.29 287.99 215.13 288.1L210.93 290.52C210.74 290.64 210.72 290.81 210.93 290.91L215.28 293.41C215.366 293.452 215.46 293.476 215.557 293.481C215.653 293.486 215.749 293.472 215.84 293.44V293.4ZM185.53 290.83L181 293.49C180.8 293.6 180.79 293.77 181 293.87L185.34 296.38C185.442 296.432 185.555 296.459 185.67 296.459C185.784 296.459 185.897 296.432 186 296.38L190.55 293.76C190.74 293.65 190.76 293.48 190.55 293.38L186.21 290.87C186.105 290.815 185.988 290.786 185.87 290.786C185.751 290.786 185.634 290.815 185.53 290.87V290.83ZM178.89 294.66L174.35 297.28C174.16 297.4 174.14 297.57 174.35 297.67L178.7 300.17C178.802 300.222 178.915 300.249 179.03 300.249C179.144 300.249 179.257 300.222 179.36 300.17L183.9 297.55C184.09 297.44 184.11 297.27 183.9 297.17L179.55 294.66C179.444 294.614 179.329 294.594 179.215 294.601C179.1 294.608 178.989 294.642 178.89 294.7V294.66ZM142.16 335.58C142.262 335.632 142.375 335.659 142.49 335.659C142.604 335.659 142.717 335.632 142.82 335.58L147.36 332.96C147.55 332.85 147.57 332.68 147.36 332.58L143.01 330.07C142.907 330.018 142.794 329.991 142.68 329.991C142.565 329.991 142.452 330.018 142.35 330.07L137.81 332.69C137.62 332.81 137.6 332.98 137.81 333.07L142.16 335.58ZM125.78 325.32L121.24 328C121.05 328.11 121.03 328.28 121.24 328.38L125.59 330.89C125.693 330.939 125.805 330.964 125.92 330.964C126.034 330.964 126.146 330.939 126.25 330.89L130.79 328.27C130.98 328.16 131 327.99 130.79 327.89L126.44 325.38C126.339 325.325 126.227 325.295 126.112 325.291C125.997 325.288 125.883 325.311 125.78 325.36V325.32ZM134.2 333.01C134.302 333.062 134.415 333.089 134.53 333.089C134.644 333.089 134.757 333.062 134.86 333.01L139.4 330.38C139.6 330.27 139.61 330.1 139.4 330L135.06 327.49C134.958 327.437 134.845 327.409 134.73 327.409C134.615 327.409 134.501 327.437 134.4 327.49L129.86 330.11C129.66 330.22 129.65 330.39 129.86 330.49L134.2 333.01ZM152.52 337.13L157.06 334.51C157.25 334.39 157.27 334.22 157.06 334.12L152.71 331.62C152.607 331.568 152.494 331.541 152.38 331.541C152.265 331.541 152.152 331.568 152.05 331.62L147.51 334.24C147.32 334.35 147.3 334.52 147.51 334.62L151.86 337.13C151.959 337.188 152.07 337.222 152.185 337.229C152.299 337.236 152.414 337.216 152.52 337.17V337.13ZM145.22 340.98C145.322 341.032 145.435 341.059 145.55 341.059C145.664 341.059 145.777 341.032 145.88 340.98L150.42 338.36C150.61 338.25 150.63 338.08 150.42 337.98L146.08 335.47C145.977 335.418 145.864 335.391 145.75 335.391C145.635 335.391 145.522 335.418 145.42 335.47L140.87 338.09C140.68 338.2 140.66 338.37 140.87 338.47L145.22 340.98ZM132.42 321.49L127.88 324.11C127.69 324.23 127.67 324.4 127.88 324.49L132.23 327C132.332 327.052 132.445 327.079 132.56 327.079C132.674 327.079 132.787 327.052 132.89 327L137.43 324.38C137.62 324.27 137.64 324.1 137.43 324L133.08 321.49C132.974 321.444 132.859 321.424 132.745 321.431C132.63 321.438 132.519 321.472 132.42 321.53V321.49ZM165.61 302.33L161.07 305C160.88 305.11 160.86 305.28 161.07 305.38L165.42 307.89C165.522 307.942 165.635 307.969 165.75 307.969C165.864 307.969 165.977 307.942 166.08 307.89L170.62 305.27C170.81 305.15 170.83 304.98 170.62 304.88L166.27 302.38C166.168 302.327 166.055 302.298 165.941 302.296C165.826 302.294 165.713 302.32 165.61 302.37V302.33ZM139.06 317.7L134.52 320.32C134.33 320.43 134.31 320.6 134.52 320.7L138.87 323.21C138.972 323.262 139.085 323.289 139.2 323.289C139.314 323.289 139.427 323.262 139.53 323.21L144.07 320.59C144.26 320.47 144.28 320.3 144.07 320.2L139.72 317.7C139.617 317.648 139.504 317.621 139.39 317.621C139.275 317.621 139.162 317.648 139.06 317.7ZM172.25 298.54L167.71 301.16C167.52 301.27 167.5 301.44 167.71 301.54L172.06 304.05C172.161 304.103 172.275 304.131 172.39 304.131C172.505 304.131 172.618 304.103 172.72 304.05L177.26 301.43C177.45 301.32 177.47 301.15 177.26 301.05L172.91 298.54C172.808 298.487 172.695 298.459 172.58 298.459C172.465 298.459 172.351 298.487 172.25 298.54ZM159 306.2L154.45 308.82C154.26 308.93 154.24 309.1 154.45 309.2L158.79 311.71C158.892 311.762 159.005 311.789 159.12 311.789C159.234 311.789 159.347 311.762 159.45 311.71L163.99 309.09C164.19 308.98 164.2 308.81 163.99 308.71L159.65 306.2C159.549 306.15 159.437 306.124 159.325 306.124C159.212 306.124 159.101 306.15 159 306.2ZM152.34 310L147.8 312.63C147.6 312.74 147.59 312.91 147.8 313.01L152.14 315.52C152.243 315.569 152.355 315.594 152.47 315.594C152.584 315.594 152.696 315.569 152.8 315.52L157.34 312.9C157.54 312.79 157.55 312.62 157.34 312.52L153 310C152.897 309.948 152.784 309.921 152.67 309.921C152.555 309.921 152.442 309.948 152.34 310ZM145.7 313.84L141.16 316.46C140.96 316.57 140.95 316.74 141.16 316.84L145.5 319.35C145.602 319.402 145.715 319.429 145.83 319.429C145.944 319.429 146.057 319.402 146.16 319.35L150.71 316.72C150.9 316.61 150.92 316.44 150.71 316.34L146.37 313.83C146.263 313.781 146.146 313.759 146.03 313.766C145.913 313.773 145.799 313.809 145.7 313.87V313.84ZM176 316.44L180.54 313.82C180.73 313.7 180.75 313.53 180.54 313.43L176.19 310.93C176.087 310.878 175.974 310.851 175.86 310.851C175.745 310.851 175.632 310.878 175.53 310.93L171 313.57C170.81 313.68 170.79 313.85 171 313.95L175.35 316.46C175.452 316.507 175.564 316.53 175.677 316.526C175.79 316.523 175.9 316.493 176 316.44ZM237.93 260.61L233.39 263.23C233.19 263.35 233.18 263.52 233.39 263.62L237.73 266.12C237.832 266.172 237.945 266.199 238.06 266.199C238.174 266.199 238.287 266.172 238.39 266.12L242.93 263.5C243.13 263.39 243.14 263.22 242.93 263.12L238.59 260.61C238.489 260.56 238.377 260.534 238.265 260.534C238.152 260.534 238.041 260.56 237.94 260.61H237.93ZM229.93 265.25L225.39 267.87C225.2 267.99 225.18 268.16 225.39 268.25L229.74 270.76C229.842 270.812 229.955 270.839 230.07 270.839C230.184 270.839 230.297 270.812 230.4 270.76L234.94 268.14C235.13 268.03 235.15 267.86 234.94 267.76L230.59 265.25C230.483 265.193 230.365 265.163 230.245 265.163C230.124 265.163 230.006 265.193 229.9 265.25H229.93ZM244.61 256.78L240 259.4C239.81 259.51 239.79 259.68 240 259.78L244.34 262.29C244.442 262.342 244.555 262.369 244.67 262.369C244.784 262.369 244.897 262.342 245 262.29L249.54 259.67C249.74 259.56 249.75 259.38 249.54 259.29L245.2 256.78C245.103 256.734 244.997 256.711 244.89 256.711C244.782 256.711 244.677 256.734 244.58 256.78H244.61ZM207.91 290.87L212.46 288.24C212.65 288.13 212.67 287.96 212.46 287.86L208.11 285.35C208.006 285.301 207.894 285.276 207.78 285.276C207.665 285.276 207.553 285.301 207.45 285.35L202.92 288C202.73 288.11 202.71 288.28 202.92 288.38L207.26 290.89C207.358 290.932 207.465 290.953 207.572 290.949C207.679 290.946 207.784 290.919 207.88 290.87H207.91ZM251.91 252.87C251.806 252.821 251.694 252.796 251.58 252.796C251.465 252.796 251.353 252.821 251.25 252.87L246.71 255.49C246.52 255.6 246.5 255.77 246.71 255.87L251.06 258.38C251.162 258.432 251.275 258.459 251.39 258.459C251.504 258.459 251.617 258.432 251.72 258.38L256.26 255.75C256.45 255.64 256.47 255.47 256.26 255.37L251.91 252.87ZM182.65 312.6L187.19 309.98C187.38 309.87 187.4 309.7 187.19 309.6L182.84 307.09C182.738 307.037 182.625 307.009 182.51 307.009C182.395 307.009 182.281 307.037 182.18 307.09L177.64 309.71C177.45 309.82 177.43 309.99 177.64 310.09L181.99 312.6C182.091 312.653 182.205 312.681 182.32 312.681C182.435 312.681 182.548 312.653 182.65 312.6ZM264.05 265.6L268.6 263C268.79 262.89 268.81 262.72 268.6 262.62L264.25 260.11C264.148 260.057 264.035 260.029 263.92 260.029C263.805 260.029 263.691 260.057 263.59 260.11L259.05 262.73C258.86 262.84 258.84 263.01 259.05 263.11L263.39 265.62C263.493 265.671 263.607 265.696 263.722 265.693C263.837 265.689 263.95 265.657 264.05 265.6ZM251.21 265.85L255.75 263.23C255.94 263.12 255.96 262.95 255.75 262.85L251.4 260.34C251.297 260.288 251.184 260.261 251.07 260.261C250.955 260.261 250.842 260.288 250.74 260.34L246.24 263C246.05 263.11 246.03 263.28 246.24 263.38L250.59 265.89C250.69 265.927 250.797 265.942 250.904 265.935C251.011 265.928 251.115 265.899 251.21 265.85ZM258.08 256.51C257.977 256.458 257.864 256.431 257.75 256.431C257.635 256.431 257.522 256.458 257.42 256.51L252.88 259.13C252.69 259.24 252.67 259.42 252.88 259.51L257.23 262.02C257.332 262.072 257.445 262.099 257.56 262.099C257.674 262.099 257.787 262.072 257.89 262.02L262.43 259.4C262.62 259.29 262.64 259.12 262.43 259.02L258.08 256.51ZM259.48 255.7L270 261.79C270.102 261.842 270.215 261.869 270.33 261.869C270.444 261.869 270.557 261.842 270.66 261.79L275.2 259.17C275.4 259.06 275.41 258.89 275.2 258.79L264.65 252.7C264.547 252.648 264.434 252.621 264.32 252.621C264.205 252.621 264.092 252.648 263.99 252.7L259.45 255.32C259.33 255.43 259.31 255.6 259.48 255.7ZM244.15 264.2L239.6 266.82C239.41 266.93 239.39 267.1 239.6 267.2L243.95 269.71C244.052 269.762 244.165 269.789 244.28 269.789C244.394 269.789 244.507 269.762 244.61 269.71L249.15 267.08C249.34 266.97 249.36 266.8 249.15 266.7L244.81 264.19C244.707 264.137 244.593 264.111 244.478 264.112C244.363 264.114 244.25 264.144 244.15 264.2ZM194.15 293.04L189.61 295.66C189.42 295.78 189.4 295.95 189.61 296.05L193.96 298.55C194.062 298.602 194.175 298.629 194.29 298.629C194.404 298.629 194.517 298.602 194.62 298.55L199.16 295.93C199.35 295.82 199.37 295.65 199.16 295.55L194.84 293C194.737 292.948 194.624 292.921 194.51 292.921C194.395 292.921 194.282 292.948 194.18 293L194.15 293.04ZM256.73 269.46C256.832 269.512 256.945 269.539 257.06 269.539C257.174 269.539 257.287 269.512 257.39 269.46L261.93 266.83C262.12 266.72 262.14 266.55 261.93 266.45L257.58 263.94C257.476 263.891 257.364 263.866 257.25 263.866C257.135 263.866 257.023 263.891 256.92 263.94L252.38 266.56C252.19 266.67 252.17 266.84 252.38 266.94L256.73 269.46ZM200.79 289.21L196.25 291.83C196.06 291.94 196.04 292.11 196.25 292.21L200.6 294.72C200.702 294.772 200.815 294.799 200.93 294.799C201.044 294.799 201.157 294.772 201.26 294.72L205.8 292.1C205.99 291.99 206.01 291.81 205.8 291.72L201.45 289.21C201.351 289.163 201.244 289.139 201.135 289.139C201.026 289.139 200.918 289.163 200.82 289.21H200.79ZM148.79 331.79C148.892 331.842 149.005 331.869 149.12 331.869C149.234 331.869 149.347 331.842 149.45 331.79L153.99 329.17C154.18 329.05 154.2 328.88 153.99 328.78L149.64 326.28C149.537 326.228 149.424 326.201 149.31 326.201C149.195 326.201 149.082 326.228 148.98 326.28L144.44 328.9C144.25 329.01 144.23 329.18 144.44 329.28L148.79 331.79ZM141.07 323.7L136.52 326.33C136.33 326.44 136.31 326.61 136.52 326.71L140.86 329.22C140.963 329.269 141.075 329.294 141.19 329.294C141.304 329.294 141.416 329.269 141.52 329.22L146.06 326.6C146.26 326.49 146.27 326.32 146.06 326.22L141.72 323.71C141.621 323.66 141.512 323.633 141.401 323.631C141.29 323.629 141.18 323.653 141.08 323.7H141.07ZM156.07 327.94L160.62 325.31C160.81 325.2 160.83 325.03 160.62 324.93L156.28 322.42C156.178 322.367 156.065 322.339 155.95 322.339C155.835 322.339 155.721 322.367 155.62 322.42L151.08 325.04C150.88 325.15 150.87 325.32 151.08 325.42L155.42 327.93C155.522 327.985 155.637 328.015 155.753 328.016C155.87 328.018 155.985 327.992 156.09 327.94H156.07ZM162.71 324.1L167.25 321.48C167.45 321.37 167.46 321.2 167.25 321.1L163 318.59C162.897 318.538 162.784 318.511 162.67 318.511C162.555 318.511 162.442 318.538 162.34 318.59L157.8 321.22C157.6 321.33 157.59 321.5 157.8 321.6L162.14 324.11C162.234 324.147 162.334 324.165 162.436 324.164C162.537 324.162 162.637 324.14 162.73 324.1H162.71ZM169.35 320.27L173.89 317.65C174.09 317.54 174.1 317.37 173.89 317.27L169.55 314.76C169.447 314.708 169.334 314.681 169.22 314.681C169.105 314.681 168.992 314.708 168.89 314.76L164.34 317.38C164.15 317.49 164.13 317.67 164.34 317.76L168.68 320.27C168.786 320.327 168.904 320.357 169.025 320.357C169.145 320.357 169.263 320.327 169.37 320.27H169.35ZM147.69 319.87L143.15 322.49C142.96 322.6 142.94 322.77 143.15 322.87L147.5 325.38C147.602 325.432 147.715 325.459 147.83 325.459C147.944 325.459 148.057 325.432 148.16 325.38L152.7 322.76C152.89 322.65 152.91 322.48 152.7 322.38L148.35 319.87C148.25 319.821 148.14 319.796 148.03 319.796C147.919 319.796 147.809 319.821 147.71 319.87H147.69ZM154.33 316.04L149.79 318.66C149.6 318.77 149.58 318.94 149.79 319.04L154.14 321.55C154.242 321.602 154.355 321.629 154.47 321.629C154.584 321.629 154.697 321.602 154.8 321.55L159.34 318.92C159.53 318.81 159.55 318.64 159.34 318.54L155 316C154.899 315.95 154.787 315.924 154.675 315.924C154.562 315.924 154.451 315.95 154.35 316L154.33 316.04ZM180.89 300.71L176.34 303.33C176.15 303.44 176.13 303.61 176.34 303.71L180.68 306.22C180.782 306.272 180.895 306.299 181.01 306.299C181.124 306.299 181.237 306.272 181.34 306.22L185.88 303.59C186.08 303.48 186.09 303.31 185.88 303.21L181.54 300.7C181.44 300.657 181.332 300.636 181.223 300.638C181.115 300.639 181.008 300.664 180.91 300.71H180.89ZM174.25 304.54L169.71 307.16C169.51 307.27 169.5 307.44 169.71 307.54L174.05 310.05C174.152 310.102 174.265 310.129 174.38 310.129C174.494 310.129 174.607 310.102 174.71 310.05L179.25 307.43C179.45 307.32 179.46 307.15 179.25 307.05L174.91 304.54C174.81 304.491 174.7 304.466 174.59 304.466C174.479 304.466 174.369 304.491 174.27 304.54H174.25ZM187.52 296.87L183 299.5C182.81 299.61 182.79 299.78 183 299.88L187.35 302.39C187.451 302.443 187.565 302.471 187.68 302.471C187.795 302.471 187.908 302.443 188.01 302.39L192.55 299.77C192.74 299.66 192.76 299.49 192.55 299.39L188.2 296.88C188.098 296.827 187.985 296.798 187.871 296.796C187.756 296.794 187.643 296.82 187.54 296.87H187.52ZM161 312.21L156.46 314.83C156.27 314.94 156.25 315.11 156.46 315.21L160.81 317.72C160.911 317.773 161.025 317.801 161.14 317.801C161.255 317.801 161.368 317.773 161.47 317.72L166.01 315.1C166.2 314.99 166.22 314.82 166.01 314.72L161.66 312.21C161.558 312.157 161.445 312.129 161.33 312.129C161.215 312.129 161.101 312.157 161 312.21ZM167.64 308.37L163.09 311C162.89 311.12 162.88 311.29 163.09 311.39L167.43 313.89C167.532 313.942 167.645 313.969 167.76 313.969C167.874 313.969 167.987 313.942 168.09 313.89L172.64 311.27C172.83 311.16 172.85 310.99 172.64 310.89L168.29 308.38C168.188 308.327 168.075 308.298 167.961 308.296C167.846 308.294 167.733 308.32 167.63 308.37H167.64ZM159.17 333.37L163.71 330.75C163.9 330.64 163.92 330.47 163.71 330.37L159.36 327.86C159.258 327.807 159.145 327.779 159.03 327.779C158.915 327.779 158.801 327.807 158.7 327.86L154.16 330.48C153.97 330.59 153.95 330.76 154.16 330.86L158.51 333.37C158.613 333.416 158.726 333.436 158.839 333.429C158.952 333.422 159.062 333.388 159.16 333.33L159.17 333.37ZM124.17 331.72L119.83 329.21C119.726 329.161 119.614 329.136 119.5 329.136C119.385 329.136 119.273 329.161 119.17 329.21L114.62 331.83C114.43 331.94 114.41 332.11 114.62 332.21L118.96 334.72C119.062 334.772 119.175 334.799 119.29 334.799C119.404 334.799 119.517 334.772 119.62 334.72L124.16 332.09C124.31 332 124.32 331.78 124.15 331.68L124.17 331.72ZM132.82 333.89L128.48 331.39C128.377 331.338 128.264 331.311 128.15 331.311C128.035 331.311 127.922 331.338 127.82 331.39L120.82 335.39C120.63 335.5 120.61 335.67 120.82 335.77L125.17 338.28C125.272 338.332 125.385 338.359 125.5 338.359C125.614 338.359 125.727 338.332 125.83 338.28L132.83 334.28C133 334.12 133 334 132.8 333.85L132.82 333.89ZM117.69 326.77L113.34 324.26C113.237 324.208 113.124 324.181 113.01 324.181C112.895 324.181 112.782 324.208 112.68 324.26L107.09 327.49C106.9 327.6 106.88 327.77 107.09 327.87L111.44 330.38C111.542 330.432 111.655 330.459 111.77 330.459C111.884 330.459 111.997 330.432 112.1 330.38L117.69 327.15C117.82 327 117.84 326.83 117.67 326.73L117.69 326.77ZM121.97 324.29C122.072 324.342 122.185 324.369 122.3 324.369C122.414 324.369 122.527 324.342 122.63 324.29L127.17 321.67C127.37 321.56 127.38 321.39 127.17 321.29L122.83 318.78C122.727 318.728 122.614 318.701 122.5 318.701C122.385 318.701 122.272 318.728 122.17 318.78L117.63 321.4C117.43 321.52 117.41 321.69 117.63 321.78L121.97 324.29ZM140.78 336.47L136.43 333.96C136.327 333.908 136.214 333.881 136.1 333.881C135.985 333.881 135.872 333.908 135.77 333.96L127 339C126.81 339.11 126.79 339.28 127 339.38L131.35 341.89C131.451 341.943 131.565 341.971 131.68 341.971C131.795 341.971 131.908 341.943 132.01 341.89L140.74 336.89C140.91 336.7 140.93 336.53 140.76 336.43L140.78 336.47ZM143.84 341.87L139.5 339.36C139.397 339.308 139.284 339.281 139.17 339.281C139.055 339.281 138.942 339.308 138.84 339.36L133.25 342.59C133.05 342.7 133.04 342.87 133.25 342.97L137.59 345.48C137.692 345.532 137.805 345.559 137.92 345.559C138.034 345.559 138.147 345.532 138.25 345.48L143.84 342.25C144 342.1 144 341.93 143.82 341.83L143.84 341.87ZM171.33 295.8C171.432 295.852 171.545 295.879 171.66 295.879C171.774 295.879 171.887 295.852 171.99 295.8L176.53 293.17C176.72 293.06 176.74 292.89 176.53 292.79L172.18 290.28C172.078 290.227 171.965 290.199 171.85 290.199C171.735 290.199 171.621 290.227 171.52 290.28L167 292.87C166.81 292.98 166.79 293.15 167 293.25L171.33 295.8ZM158 303.42C158.102 303.472 158.215 303.499 158.33 303.499C158.444 303.499 158.557 303.472 158.66 303.42L163.2 300.8C163.4 300.69 163.41 300.52 163.2 300.42L158.86 297.91C158.757 297.858 158.644 297.831 158.53 297.831C158.415 297.831 158.302 297.858 158.2 297.91L153.66 300.53C153.46 300.64 153.44 300.81 153.66 300.91L158 303.42ZM128.56 320.42C128.662 320.472 128.775 320.499 128.89 320.499C129.004 320.499 129.117 320.472 129.22 320.42L133.76 317.8C133.95 317.68 133.97 317.51 133.76 317.42L129.42 314.91C129.317 314.858 129.204 314.831 129.09 314.831C128.975 314.831 128.862 314.858 128.76 314.91L124.21 317.53C124.02 317.64 124 317.81 124.21 317.91L128.56 320.42ZM164.64 299.59C164.742 299.642 164.855 299.669 164.97 299.669C165.084 299.669 165.197 299.642 165.3 299.59L169.84 296.97C170.03 296.85 170.05 296.68 169.84 296.58L165.5 294.08C165.397 294.028 165.284 294.001 165.17 294.001C165.055 294.001 164.942 294.028 164.84 294.08L160.29 296.7C160.1 296.81 160.08 296.98 160.29 297.08L164.64 299.59ZM151.36 307.26C151.463 307.309 151.575 307.334 151.69 307.334C151.804 307.334 151.916 307.309 152.02 307.26L156.56 304.64C156.76 304.53 156.78 304.36 156.56 304.26L152.22 301.75C152.117 301.698 152.004 301.671 151.89 301.671C151.775 301.671 151.662 301.698 151.56 301.75L147.02 304.38C146.82 304.49 146.81 304.66 147.02 304.76L151.36 307.26ZM147.05 342.1C146.947 342.048 146.834 342.021 146.72 342.021C146.605 342.021 146.492 342.048 146.39 342.1L139.39 346.1C139.2 346.22 139.18 346.39 139.39 346.49L143.73 348.99C143.832 349.042 143.945 349.069 144.06 349.069C144.174 349.069 144.287 349.042 144.39 348.99L151.39 344.99C151.58 344.88 151.6 344.71 151.39 344.61L147.05 342.1ZM141.84 312.76C141.943 312.809 142.055 312.834 142.17 312.834C142.284 312.834 142.396 312.809 142.5 312.76L147.04 310.14C147.23 310.03 147.25 309.86 147.04 309.76L142.69 307.25C142.587 307.198 142.474 307.171 142.36 307.171C142.245 307.171 142.132 307.198 142.03 307.25L137.49 309.88C137.3 309.99 137.28 310.16 137.49 310.26L141.84 312.76ZM135.2 316.59C135.302 316.642 135.415 316.669 135.53 316.669C135.644 316.669 135.757 316.642 135.86 316.59L140.4 313.96C140.59 313.85 140.61 313.68 140.4 313.58L136.05 311.07C135.947 311.019 135.834 310.992 135.72 310.992C135.605 310.992 135.492 311.019 135.39 311.07L130.85 313.69C130.66 313.8 130.64 313.97 130.85 314.07L135.2 316.59ZM270.04 271.09C269.938 271.037 269.825 271.009 269.71 271.009C269.595 271.009 269.481 271.037 269.38 271.09L258.2 277.54C258 277.65 257.99 277.82 258.2 277.92L262.54 280.43C262.642 280.482 262.755 280.509 262.87 280.509C262.984 280.509 263.097 280.482 263.2 280.43L274.37 274C274.57 273.89 274.58 273.72 274.37 273.62L270.04 271.09ZM255.36 279.57C255.257 279.518 255.144 279.491 255.03 279.491C254.915 279.491 254.802 279.518 254.7 279.57L250.16 282.19C249.97 282.3 249.95 282.47 250.16 282.57L254.51 285.08C254.612 285.132 254.725 285.159 254.84 285.159C254.954 285.159 255.067 285.132 255.17 285.08L259.71 282.45C259.9 282.34 259.92 282.17 259.71 282.07L255.36 279.57ZM165.76 329.5L170.31 326.88C170.5 326.77 170.52 326.6 170.31 326.5L166 324C165.897 323.948 165.784 323.921 165.67 323.921C165.555 323.921 165.442 323.948 165.34 324L160.8 326.63C160.61 326.74 160.59 326.91 160.8 327.01L165.15 329.51C165.25 329.559 165.36 329.583 165.471 329.581C165.582 329.579 165.691 329.552 165.79 329.5H165.76ZM242.09 287.23C241.987 287.178 241.874 287.151 241.76 287.151C241.645 287.151 241.532 287.178 241.43 287.23L236.88 289.86C236.69 289.97 236.67 290.14 236.88 290.24L241.22 292.75C241.323 292.799 241.435 292.824 241.55 292.824C241.664 292.824 241.776 292.799 241.88 292.75L246.42 290.13C246.62 290.02 246.63 289.85 246.42 289.75L242.09 287.23ZM276.68 267.23C276.577 267.178 276.464 267.151 276.35 267.151C276.235 267.151 276.122 267.178 276.02 267.23L271.47 269.86C271.28 269.97 271.26 270.14 271.47 270.24L275.82 272.74C275.922 272.792 276.035 272.819 276.15 272.819C276.264 272.819 276.377 272.792 276.48 272.74L281.02 270.12C281.21 270.01 281.23 269.84 281.02 269.74L276.68 267.23ZM287.68 265.91L277.13 259.81C277.028 259.756 276.915 259.727 276.8 259.727C276.684 259.727 276.571 259.756 276.47 259.81L271.92 262.43C271.73 262.54 271.71 262.71 271.92 262.81L282.45 269C282.552 269.052 282.665 269.079 282.78 269.079C282.894 269.079 283.007 269.052 283.11 269L287.65 266.38C287.84 266.21 287.86 266 287.69 265.94L287.68 265.91ZM217.3 301.52C217.198 301.467 217.085 301.439 216.97 301.439C216.855 301.439 216.741 301.467 216.64 301.52L211.05 304.74C210.86 304.85 210.84 305.02 211.05 305.12L215.4 307.63C215.502 307.682 215.615 307.709 215.73 307.709C215.844 307.709 215.957 307.682 216.06 307.63L221.65 304.4C221.84 304.29 221.86 304.12 221.65 304.02L217.3 301.52ZM234.07 291.84C233.967 291.788 233.854 291.761 233.74 291.761C233.625 291.761 233.512 291.788 233.41 291.84L226.41 295.84C226.22 295.95 226.2 296.12 226.41 296.22L230.76 298.73C230.861 298.783 230.975 298.811 231.09 298.811C231.205 298.811 231.318 298.783 231.42 298.73L238.42 294.73C238.61 294.62 238.63 294.45 238.42 294.35L234.07 291.84ZM201.93 310.4C201.827 310.348 201.714 310.321 201.6 310.321C201.485 310.321 201.372 310.348 201.27 310.4L163.89 332C163.7 332.12 163.68 332.29 163.89 332.39L168.24 334.89C168.342 334.942 168.455 334.969 168.57 334.969C168.684 334.969 168.797 334.942 168.9 334.89L206.28 313.31C206.48 313.2 206.49 313.03 206.28 312.93L201.93 310.4ZM162.45 333.19C162.347 333.138 162.234 333.111 162.12 333.111C162.005 333.111 161.892 333.138 161.79 333.19L156.2 336.42C156 336.53 155.98 336.7 156.2 336.8L160.54 339.31C160.642 339.362 160.755 339.389 160.87 339.389C160.984 339.389 161.097 339.362 161.2 339.31L166.79 336.08C166.98 335.97 167 335.8 166.79 335.7L162.45 333.19ZM209.62 306C209.517 305.948 209.404 305.921 209.29 305.921C209.175 305.921 209.062 305.948 208.96 306L203.37 309.23C203.18 309.34 203.16 309.51 203.37 309.61L207.72 312.12C207.822 312.172 207.935 312.199 208.05 312.199C208.164 312.199 208.277 312.172 208.38 312.12L213.97 308.89C214.16 308.78 214.18 308.61 213.97 308.51L209.62 306ZM154.77 337.67C154.667 337.618 154.554 337.591 154.44 337.591C154.325 337.591 154.212 337.618 154.11 337.67L148.52 340.9C148.33 341.01 148.31 341.18 148.52 341.28L152.87 343.79C152.972 343.842 153.085 343.869 153.2 343.869C153.314 343.869 153.427 343.842 153.53 343.79L159.12 340.56C159.31 340.45 159.33 340.28 159.12 340.18L154.77 337.67ZM225 297.11C224.896 297.061 224.784 297.036 224.67 297.036C224.555 297.036 224.443 297.061 224.34 297.11L218.75 300.33C218.55 300.45 218.54 300.62 218.75 300.72L223.09 303.22C223.192 303.272 223.305 303.299 223.42 303.299C223.534 303.299 223.647 303.272 223.75 303.22L229.3 300C229.5 299.89 229.51 299.72 229.3 299.62L225 297.11ZM248.75 283.4C248.647 283.348 248.534 283.321 248.42 283.321C248.305 283.321 248.192 283.348 248.09 283.4L243.55 286C243.36 286.11 243.34 286.28 243.55 286.38L247.9 288.89C248.002 288.942 248.115 288.969 248.23 288.969C248.344 288.969 248.457 288.942 248.56 288.89L253.1 286.27C253.29 286.16 253.31 285.99 253.1 285.89L248.75 283.4ZM263.62 273L268.17 270.38C268.36 270.27 268.38 270.1 268.17 270L263.83 267.49C263.727 267.438 263.614 267.411 263.5 267.411C263.385 267.411 263.272 267.438 263.17 267.49L258.63 270.11C258.43 270.23 258.42 270.4 258.63 270.49L263 273C263.097 273.045 263.202 273.069 263.31 273.069C263.417 273.069 263.523 273.045 263.62 273ZM236.53 274.31L241.08 271.68C241.27 271.57 241.29 271.4 241.08 271.3L236.73 268.79C236.628 268.737 236.515 268.709 236.4 268.709C236.285 268.709 236.171 268.737 236.07 268.79L231.53 271.41C231.33 271.52 231.32 271.69 231.53 271.79L235.87 274.3C235.969 274.356 236.081 274.389 236.196 274.394C236.311 274.399 236.425 274.377 236.53 274.33V274.31ZM218.9 298.84L232.18 291.18C232.37 291.06 232.39 290.89 232.18 290.79L227.83 288.29C227.727 288.238 227.614 288.211 227.5 288.211C227.385 288.211 227.272 288.238 227.17 288.29L213.94 296C213.74 296.12 213.73 296.29 213.94 296.38L218.28 298.89C218.38 298.928 218.488 298.943 218.595 298.934C218.702 298.926 218.806 298.893 218.9 298.84ZM256.33 276.84C256.43 276.892 256.541 276.919 256.655 276.919C256.768 276.919 256.879 276.892 256.98 276.84L261.53 274.22C261.72 274.11 261.74 273.94 261.53 273.84L257.18 271.33C257.077 271.278 256.964 271.251 256.85 271.251C256.735 271.251 256.622 271.278 256.52 271.33L252 274C251.81 274.11 251.79 274.28 252 274.38L256.33 276.84ZM250.78 273.23L255.32 270.61C255.51 270.5 255.53 270.33 255.32 270.23L251 267.76C250.897 267.708 250.784 267.681 250.67 267.681C250.555 267.681 250.442 267.708 250.34 267.76L245.8 270.38C245.61 270.49 245.59 270.66 245.8 270.76L250.15 273.27C250.248 273.317 250.356 273.341 250.465 273.341C250.574 273.341 250.681 273.317 250.78 273.27V273.23ZM212.26 302.63L216.81 300.01C217 299.9 217.02 299.73 216.81 299.63L212.47 297.12C212.367 297.068 212.254 297.041 212.14 297.041C212.025 297.041 211.912 297.068 211.81 297.12L207.27 299.75C207.07 299.86 207.06 300.03 207.27 300.13L211.61 302.64C211.707 302.697 211.818 302.73 211.931 302.735C212.044 302.74 212.157 302.718 212.26 302.67V302.63ZM241.65 285.31C241.752 285.362 241.865 285.389 241.98 285.389C242.094 285.389 242.207 285.362 242.31 285.31L246.85 282.68C247.05 282.57 247.06 282.4 246.85 282.3L242.51 279.79C242.408 279.736 242.295 279.707 242.18 279.707C242.064 279.707 241.951 279.736 241.85 279.79L237.3 282.41C237.11 282.52 237.09 282.69 237.3 282.79L241.65 285.31ZM179.07 321.8L183.61 319.17C183.81 319.06 183.82 318.89 183.61 318.79L179.27 316.28C179.166 316.231 179.054 316.206 178.94 316.206C178.825 316.206 178.713 316.231 178.61 316.28L174.11 319C173.91 319.11 173.9 319.28 174.11 319.38L178.45 321.89C178.55 321.928 178.658 321.943 178.765 321.934C178.872 321.926 178.976 321.893 179.07 321.84V321.8ZM185.71 317.96L190.25 315.34C190.45 315.23 190.46 315.06 190.25 314.96L186 312.49C185.897 312.438 185.784 312.411 185.67 312.411C185.555 312.411 185.442 312.438 185.34 312.49L180.79 315.12C180.6 315.23 180.58 315.4 180.79 315.5L185.14 318.01C185.23 318.048 185.327 318.066 185.426 318.065C185.524 318.063 185.62 318.041 185.71 318V317.96ZM172.43 325.63L176.98 323.01C177.17 322.9 177.19 322.73 176.98 322.63L172.64 320.12C172.537 320.068 172.424 320.041 172.31 320.041C172.195 320.041 172.082 320.068 171.98 320.12L167.44 322.74C167.24 322.85 167.23 323.02 167.44 323.12L171.78 325.63C171.877 325.686 171.987 325.72 172.1 325.726C172.213 325.733 172.325 325.714 172.43 325.67V325.63ZM199 310.34L203.54 307.72C203.73 307.61 203.75 307.43 203.54 307.34L199.19 304.83C199.087 304.778 198.974 304.751 198.86 304.751C198.745 304.751 198.632 304.778 198.53 304.83L194 307.47C193.81 307.58 193.79 307.75 194 307.85L198.35 310.36C198.452 310.407 198.564 310.43 198.677 310.426C198.79 310.423 198.9 310.393 199 310.34ZM192.36 314.17L196.9 311.55C197.09 311.44 197.11 311.27 196.9 311.17L192.55 308.66C192.447 308.608 192.334 308.581 192.22 308.581C192.105 308.581 191.992 308.608 191.89 308.66L187.35 311.28C187.16 311.4 187.14 311.57 187.35 311.67L191.7 314.17C191.801 314.22 191.912 314.246 192.025 314.246C192.137 314.246 192.249 314.22 192.35 314.17H192.36ZM205.63 306.51L210.18 303.88C210.37 303.77 210.39 303.6 210.18 303.5L205.86 301C205.756 300.951 205.644 300.926 205.53 300.926C205.415 300.926 205.303 300.951 205.2 301L200.66 303.62C200.47 303.73 200.45 303.9 200.66 304L205.01 306.51C205.105 306.555 205.209 306.579 205.315 306.579C205.42 306.579 205.524 306.555 205.62 306.51H205.63ZM241.86 253.19C241.962 253.242 242.075 253.269 242.19 253.269C242.304 253.269 242.417 253.242 242.52 253.19L247.06 250.56C247.26 250.45 247.27 250.28 247.06 250.18L245.91 249.51C245.806 249.461 245.694 249.436 245.58 249.436C245.465 249.436 245.353 249.461 245.25 249.51L240.7 252.13C240.51 252.24 240.49 252.41 240.7 252.51L241.86 253.19ZM208.86 274.08C208.962 274.132 209.075 274.159 209.19 274.159C209.304 274.159 209.417 274.132 209.52 274.08L214.06 271.45C214.25 271.34 214.27 271.17 214.06 271.07L209.71 268.57C209.607 268.518 209.494 268.491 209.38 268.491C209.265 268.491 209.152 268.518 209.05 268.57L204.51 271.19C204.32 271.3 204.3 271.47 204.51 271.57L208.86 274.08ZM222.13 266.41C222.232 266.462 222.345 266.489 222.46 266.489C222.574 266.489 222.687 266.462 222.79 266.41L227.33 263.79C227.53 263.68 227.54 263.51 227.33 263.41L223 260.88C222.897 260.828 222.784 260.801 222.67 260.801C222.555 260.801 222.442 260.828 222.34 260.88L217.8 263.5C217.6 263.62 217.59 263.79 217.8 263.89L222.13 266.41ZM200.75 278.76C200.852 278.812 200.965 278.839 201.08 278.839C201.194 278.839 201.307 278.812 201.41 278.76L205.95 276.13C206.14 276.02 206.16 275.85 205.95 275.75L201.61 273.24C201.506 273.191 201.394 273.166 201.28 273.166C201.165 273.166 201.053 273.191 200.95 273.24L196.4 275.86C196.21 275.97 196.19 276.14 196.4 276.24L200.75 278.76ZM215.49 270.25C215.591 270.304 215.704 270.333 215.82 270.333C215.935 270.333 216.048 270.304 216.15 270.25L220.7 267.63C220.89 267.52 220.91 267.35 220.7 267.25L216.36 264.74C216.257 264.688 216.144 264.661 216.03 264.661C215.915 264.661 215.802 264.688 215.7 264.74L211.16 267.37C210.96 267.48 210.95 267.65 211.16 267.75L215.49 270.25ZM187.49 286.42C187.592 286.472 187.705 286.499 187.82 286.499C187.934 286.499 188.047 286.472 188.15 286.42L192.69 283.8C192.89 283.69 192.91 283.52 192.69 283.42L188.35 280.91C188.247 280.858 188.134 280.831 188.02 280.831C187.905 280.831 187.792 280.858 187.69 280.91L183.15 283.53C182.95 283.65 182.94 283.82 183.15 283.92L187.49 286.42ZM194.13 282.59C194.232 282.642 194.345 282.669 194.46 282.669C194.574 282.669 194.687 282.642 194.79 282.59L199.33 279.97C199.53 279.86 199.54 279.69 199.33 279.59L195 277.06C194.897 277.008 194.784 276.981 194.67 276.981C194.555 276.981 194.442 277.008 194.34 277.06L189.8 279.68C189.6 279.79 189.58 279.96 189.8 280.06L194.13 282.59ZM228.59 260.85C228.692 260.902 228.805 260.929 228.92 260.929C229.034 260.929 229.147 260.902 229.25 260.85L233.8 258.23C233.99 258.12 234.01 257.95 233.8 257.85L232.64 257.18C232.537 257.128 232.424 257.101 232.31 257.101C232.195 257.101 232.082 257.128 231.98 257.18L227.44 259.81C227.24 259.92 227.23 260.09 227.44 260.19L228.59 260.85ZM248.51 249.36C248.612 249.411 248.725 249.438 248.84 249.438C248.954 249.438 249.067 249.411 249.17 249.36L253.71 246.74C253.9 246.63 253.92 246.46 253.71 246.36L252.55 245.69C252.448 245.637 252.335 245.609 252.22 245.609C252.105 245.609 251.991 245.637 251.89 245.69L247.35 248.31C247.16 248.42 247.14 248.59 247.35 248.69L248.51 249.36ZM257.64 254.63C257.741 254.683 257.855 254.711 257.97 254.711C258.085 254.711 258.198 254.683 258.3 254.63L262.84 252.01C263.03 251.9 263.05 251.73 262.84 251.63L258.49 249.12C258.387 249.068 258.274 249.041 258.16 249.041C258.045 249.041 257.932 249.068 257.83 249.12L253.29 251.75C253.1 251.86 253.08 252.03 253.29 252.13L257.64 254.63ZM270.28 269.19L274.82 266.57C275.02 266.45 275.03 266.28 274.82 266.19L270.48 263.68C270.377 263.628 270.264 263.601 270.15 263.601C270.035 263.601 269.922 263.628 269.82 263.68L265.28 266.3C265.08 266.41 265.07 266.58 265.28 266.68L269.62 269.19C269.719 269.239 269.829 269.264 269.94 269.264C270.05 269.264 270.16 269.239 270.26 269.19H270.28ZM235.28 257.02C235.382 257.072 235.495 257.099 235.61 257.099C235.724 257.099 235.837 257.072 235.94 257.02L240.48 254.4C240.68 254.29 240.69 254.11 240.48 254.02L239.33 253.35C239.227 253.298 239.114 253.271 239 253.271C238.885 253.271 238.772 253.298 238.67 253.35L234.09 256C233.9 256.11 233.88 256.28 234.09 256.38L235.28 257.02ZM180.9 290.26C181.001 290.314 181.114 290.343 181.23 290.343C181.345 290.343 181.458 290.314 181.56 290.26L186.11 287.64C186.3 287.53 186.32 287.36 186.11 287.26L181.76 284.75C181.658 284.697 181.545 284.669 181.43 284.669C181.315 284.669 181.201 284.697 181.1 284.75L176.56 287.37C176.37 287.48 176.35 287.65 176.56 287.75L180.9 290.26Z" fill="#455A64"/>
<path d="M199.85 328.03L200.84 328.6L227.07 343.75L273.72 316.81L274.69 316.26L247.47 300.55L199.85 328.03Z" fill="#263238"/>
<path d="M273.12 317.16L247.47 302.36L201.43 328.95L227.07 343.75L273.12 317.16Z" fill="#37474F"/>
<path d="M139.749 56.8C131.549 51.43 120.979 52.39 115.259 56.72C107.259 62.8 104.439 69.49 102.999 82.72C100.999 101.36 98.8992 106.72 96.6892 110.95C95.747 112.808 94.4451 114.461 92.8588 115.812C91.2726 117.163 89.4338 118.186 87.4492 118.82C89.0317 119.788 90.8351 120.335 92.6884 120.41C94.5417 120.486 96.3835 120.086 98.0392 119.25C96.1592 128.25 93.5392 135.8 95.8692 145.31C97.4392 151.71 100.779 158.96 105.709 163.55C109.909 167.46 115.919 168.65 120.969 170.86C117.559 163.55 115.729 156.65 118.089 148.43C120.689 139.36 126.769 131.64 129.459 122.5C133.199 109.86 137.459 96.76 138.529 83.57C139.419 72.45 139.839 64.44 139.749 56.8Z" fill="#263238"/>
<path d="M135.658 58.47C134.348 57.24 128.558 58.04 125.058 62.21C121.558 66.38 119.478 72.44 123.728 75.69C127.708 78.74 143.178 62.51 135.658 58.47Z" fill="#3F8CFE"/>
<path d="M183.148 76.77C186.028 75.71 187.258 72 186.398 69.05C185.538 66.1 183.128 63.86 180.558 62.17C174.674 58.3718 167.653 56.7385 160.698 57.55C154.246 55.4968 147.372 55.1522 140.748 56.55C136.438 57.5474 132.56 59.8975 129.681 63.2567C126.802 66.6159 125.073 70.808 124.748 75.22C114.478 77.64 109.988 90.22 116.328 103.72C120.938 113.48 131.328 120.23 132.618 125.09L171.558 94.83C173.078 97.2 177.778 97.31 179.698 96.37C181.618 95.43 182.818 91.95 181.538 90.23C183.324 90.4421 185.121 89.9361 186.534 88.823C187.947 87.71 188.861 86.0812 189.073 84.295C189.285 82.5087 188.779 80.7114 187.666 79.2983C186.553 77.8852 184.924 76.9721 183.138 76.76L183.148 76.77Z" fill="#263238"/>
<path d="M140.749 56.56C136.509 57.6829 132.724 60.098 129.919 63.47C128.52 65.1216 127.399 66.9892 126.599 69C125.817 71.0059 125.352 73.1211 125.219 75.27V75.6L124.899 75.68C122.484 76.245 120.276 77.4788 118.529 79.24C116.802 81.0201 115.533 83.1921 114.829 85.57C113.519 90.4239 113.753 95.5653 115.499 100.28C117.205 105.043 119.858 109.411 123.299 113.12C124.969 115.04 126.729 116.88 128.419 118.79C129.269 119.79 130.119 120.7 130.879 121.79C131.68 122.79 132.284 123.934 132.659 125.16C132.214 123.969 131.553 122.871 130.709 121.92C129.903 120.938 129.049 119.997 128.149 119.1C126.359 117.28 124.539 115.49 122.819 113.6C121.07 111.724 119.466 109.718 118.019 107.6C116.583 105.445 115.433 103.112 114.599 100.66C113.7 98.197 113.161 95.617 112.999 93C112.786 90.3914 113.064 87.7661 113.819 85.26C114.588 82.732 115.961 80.4291 117.819 78.55C119.706 76.6831 122.079 75.3837 124.669 74.8L124.319 75.21C124.669 70.7178 126.481 66.4641 129.479 63.1C130.96 61.444 132.691 60.0302 134.609 58.91C136.506 57.7816 138.583 56.9868 140.749 56.56Z" fill="black"/>
<path d="M283.448 140.81C285.588 138.99 285.978 138.52 288.858 136.21C290.998 134.5 292.708 133.11 293.258 132.11C294.338 130.11 293.328 128.18 292.428 128.5C290.618 129.14 288.478 130.67 284.308 133.5C279.718 136.65 276.478 139.76 276.238 139.26C277.718 137.205 279.353 135.266 281.128 133.46C286.748 127.39 287.848 126.29 288.878 124.34C291.058 120.28 287.998 119.61 286.658 120.45C285.128 121.45 283.468 123.24 279.448 127.23C275.088 131.56 271.288 135.97 270.938 135.71C270.588 135.45 276.628 128.84 280.248 124C283.598 119.51 281.418 117.61 280.458 117.46C279.498 117.31 278.268 118.61 276.648 120.35C273.718 123.54 265.198 134 263.418 136C261.638 138 260.288 138.72 260.058 135.49C259.838 132.49 259.988 129.23 258.668 127.14C256.458 123.65 254.018 124.51 254.008 126.84C254.008 130.14 253.218 133.84 252.638 139.11C252.328 141.86 252.378 145.11 252.318 147.05C251.978 153.74 246.368 157.2 241.698 160.42C237.028 163.64 224.308 170.89 224.308 170.89C224.308 170.89 200.588 146.46 193.668 140.48C185.448 133.36 183.098 132.86 171.488 132.95L187.908 175.18C187.908 175.18 210.228 195.83 217.808 200.24C225.388 204.65 228.468 202.24 237.678 194.07C244.748 187.8 256.388 173.43 259.198 170.24C262.008 167.05 263.198 164.99 266.488 163.79C270.918 162.17 273.198 159.94 276.148 156.56C277.558 154.95 279.888 151.71 282.038 149.56C284.944 146.802 288.013 144.22 291.228 141.83C293.168 140.2 293.468 136.83 290.748 137.91C285.588 139.91 280.418 144.27 280.248 143.98C280.078 143.69 281.998 142.05 283.448 140.81Z" fill="#FFBDA7"/>
<path d="M261.857 141C264.227 144.49 264.757 152.74 262.447 157.65C267.217 153 266.717 144.59 261.857 141Z" fill="#F0997A"/>
<path d="M224.309 170.93C220.379 173.5 215.689 180.93 217.029 188.57C215.319 182.93 213.839 175.89 222.459 168.87L224.309 170.93Z" fill="#F0997A"/>
<path d="M110.999 145.34L120.149 141.68C120.149 141.68 133.799 138.14 145.149 135.68C157.149 134.17 167.459 133.04 167.459 133.04L171.509 132.97C171.509 132.97 180.509 140.89 187.099 148.2C193.689 155.51 199.479 161.62 199.849 170.85C200.339 183.32 192.329 187.85 192.329 187.85L192.819 203.74L203.229 233.19L102.629 291.25C105.689 255.4 113.629 249.49 118.119 224.64C117.259 211.64 110.789 193.8 109.689 184.74C105.849 153.45 110.999 145.34 110.999 145.34Z" fill="#3F8CFE"/>
<path d="M132.258 129.72C132.638 125.33 133.258 116.6 133.258 116.6C132.168 118.05 126.258 120.06 122.258 114.38C117.598 107.83 118.338 103.14 121.588 100C125.288 96.42 131.768 97.34 134.468 103C136.158 107 139.468 102.28 136.138 96C135.028 84.94 149.138 92.27 157.928 69.21C166.798 68.71 172.148 71.21 176.458 78.59C178.458 81.93 180.788 86.74 180.308 100.67C179.688 118.41 177.018 123.99 170.808 126.96C167.948 128.33 165.008 128.85 159.498 128.44L159.448 130.14C159.44 130.534 159.46 130.929 159.508 131.32C159.535 131.811 159.741 132.275 160.088 132.624C160.434 132.973 160.897 133.181 161.388 133.21C163.42 133.29 165.454 133.233 167.478 133.04C167.478 133.04 171.998 144.4 156.998 147.63C144.387 150.318 131.226 148.196 120.098 141.68C122.33 140.535 124.479 139.235 126.528 137.79C131.158 134.44 131.998 132.47 132.258 129.72Z" fill="#FFBDA7"/>
<path d="M126.508 113.54C126.524 113.966 126.666 114.378 126.916 114.724C127.166 115.07 127.512 115.334 127.912 115.483C128.312 115.632 128.747 115.659 129.162 115.561C129.578 115.463 129.954 115.244 130.246 114.933C130.537 114.621 130.729 114.229 130.798 113.808C130.867 113.387 130.81 112.955 130.633 112.567C130.457 112.178 130.17 111.85 129.807 111.625C129.445 111.4 129.024 111.287 128.598 111.3C128.313 111.308 128.032 111.372 127.772 111.489C127.512 111.606 127.278 111.774 127.084 111.983C126.889 112.191 126.738 112.436 126.639 112.703C126.54 112.971 126.496 113.255 126.508 113.54Z" fill="#FAFAFA"/>
<path d="M154.838 111.17L164.478 114.17C164.305 114.813 164.006 115.414 163.597 115.94C163.189 116.465 162.679 116.904 162.099 117.23C161.519 117.556 160.879 117.763 160.218 117.838C159.557 117.914 158.887 117.857 158.248 117.67C156.949 117.238 155.868 116.32 155.232 115.108C154.597 113.896 154.455 112.484 154.838 111.17Z" fill="#B16668"/>
<path d="M155.469 113.39C156.752 113.348 158.01 113.753 159.028 114.535C160.045 115.317 160.76 116.429 161.049 117.68C160.136 117.955 159.162 117.955 158.249 117.68C157.331 117.379 156.514 116.829 155.891 116.091C155.268 115.353 154.862 114.456 154.719 113.5C154.966 113.448 155.217 113.411 155.469 113.39Z" fill="#F28F8F"/>
<path d="M176.578 87.07L170.508 85.62C170.583 85.2206 170.739 84.8407 170.966 84.5033C171.193 84.1659 171.485 83.8781 171.827 83.6574C172.168 83.4367 172.551 83.2877 172.952 83.2194C173.352 83.1511 173.763 83.1649 174.158 83.26C174.972 83.4646 175.677 83.9738 176.127 84.6826C176.578 85.3914 176.739 86.2459 176.578 87.07Z" fill="#263238"/>
<path d="M146.999 86.76L152.909 84.53C152.787 84.1317 152.583 83.7631 152.311 83.4478C152.038 83.1325 151.704 82.8774 151.327 82.6986C150.951 82.5199 150.542 82.4215 150.125 82.4097C149.709 82.3978 149.294 82.4729 148.909 82.63C148.124 82.9457 147.49 83.5488 147.135 84.3163C146.78 85.0838 146.731 85.9578 146.999 86.76Z" fill="#263238"/>
<path d="M170.619 94.94C170.584 95.6232 170.81 96.2941 171.253 96.8161C171.695 97.3381 172.319 97.6721 172.999 97.75C173.334 97.7858 173.673 97.7536 173.996 97.6554C174.318 97.5572 174.618 97.395 174.877 97.1784C175.135 96.9619 175.347 96.6955 175.501 96.3951C175.654 96.0947 175.745 95.7665 175.769 95.43C175.805 94.74 175.574 94.0625 175.123 93.5389C174.672 93.0153 174.037 92.6861 173.349 92.62C173.017 92.5899 172.682 92.6264 172.364 92.7272C172.046 92.828 171.751 92.9912 171.497 93.2072C171.243 93.4232 171.034 93.6877 170.883 93.9852C170.733 94.2827 170.643 94.6073 170.619 94.94Z" fill="#263238"/>
<path d="M149.468 95.07C149.426 95.7607 149.654 96.4408 150.103 96.9669C150.553 97.4929 151.189 97.8239 151.878 97.89C152.213 97.9272 152.553 97.896 152.876 97.7984C153.2 97.7007 153.5 97.5386 153.758 97.3218C154.017 97.105 154.23 96.838 154.382 96.5369C154.535 96.2359 154.626 95.9069 154.648 95.57C154.69 94.8804 154.462 94.2015 154.012 93.677C153.562 93.1525 152.926 92.8237 152.238 92.76C151.903 92.7242 151.565 92.7561 151.243 92.8537C150.921 92.9513 150.622 93.1126 150.363 93.3281C150.105 93.5436 149.893 93.8089 149.739 94.1081C149.585 94.4073 149.493 94.7345 149.468 95.07Z" fill="#263238"/>
<path d="M159.458 128.45C153.715 127.906 148.116 126.335 142.928 123.81C140.08 122.171 137.826 119.671 136.488 116.67C136.554 118.398 136.983 120.093 137.748 121.644C138.513 123.195 139.597 124.567 140.928 125.67C145.928 129.87 159.468 131.29 159.468 131.29C159.41 130.9 159.39 130.504 159.408 130.11L159.458 128.45Z" fill="#F0997A"/>
<path d="M152.309 190C157.189 185.85 159.669 184.21 162.019 183.39C164.369 182.57 172.519 178.55 175.679 177.55C177.679 176.91 178.679 180.1 176.259 182.49C174.369 184.33 169.319 186.91 167.119 188.3C164.919 189.69 160.789 195.41 160.789 195.41L152.309 190Z" fill="#F0997A"/>
<path d="M141.238 226.44C125.238 235.52 111.238 246.83 95.7283 249.16C80.6083 251.42 80.1383 238.9 80.4083 229.57C80.7483 217.79 87.3483 180.85 90.7783 168.57C94.4183 155.5 96.7783 150.68 110.948 145.36C122.648 153.03 119.948 178.36 117.458 188.03C114.808 198.12 110.518 216.97 110.518 216.97C110.518 216.97 128.958 211.16 133.388 208.82C137.818 206.48 145.238 196.52 148.168 193.33C152.168 188.99 154.298 189.4 156.468 189.59C163.598 190.21 165.188 190.7 166.738 191.59C167.2 191.867 167.584 192.256 167.855 192.721C168.126 193.186 168.275 193.712 168.288 194.25C170.178 194.37 172.978 194.13 173.538 197.19C173.747 197.993 173.838 198.821 173.808 199.65C174.288 199.703 174.734 199.922 175.068 200.27C176.748 201.98 174.458 208.41 172.858 210.04C171.728 211.19 170.038 211.43 167.788 211.27C165.868 211.13 166.628 209.14 166.628 209.14L163.978 209.47C158.498 213.91 158.228 220.47 150.748 222.73C147.41 223.482 144.204 224.732 141.238 226.44Z" fill="#FFBDA7"/>
<path d="M168.289 194.2L159.799 193H167.999C168.172 193.378 168.27 193.785 168.289 194.2Z" fill="#F0997A"/>
<path d="M173.808 199.6L164.078 198.96L173.748 198.48C173.809 198.85 173.829 199.226 173.808 199.6Z" fill="#F0997A"/>
<path d="M172.798 203.93C172.518 204.444 172.093 204.864 171.577 205.14C171.071 205.437 170.526 205.662 169.958 205.81L170.077 205.71C169.857 206.23 169.607 206.71 169.367 207.25L169.147 207.01C169.413 206.944 169.689 206.934 169.958 206.982C170.226 207.031 170.482 207.136 170.708 207.29C171.13 207.591 171.45 208.013 171.628 208.5C171.379 208.092 171.036 207.749 170.628 207.5C170.221 207.29 169.752 207.234 169.307 207.34L168.938 207.44L169.087 207.09C169.317 206.57 169.547 206.09 169.807 205.55V205.47H169.887C170.427 205.336 170.953 205.152 171.458 204.92C171.977 204.701 172.436 204.362 172.798 203.93Z" fill="#F0997A"/>
<path d="M170.319 205.34C169.169 205.562 168.007 205.716 166.839 205.8C166.679 206.537 166.303 207.209 165.759 207.73C165.2 208.329 164.606 208.894 163.979 209.42L166.629 209.09C166.629 209.09 167.209 207.86 169.569 207.25L170.319 205.34Z" fill="#F0997A"/>
<path d="M111.317 213.46L110.517 216.95C103.707 219.17 96.5174 224.47 95.1074 228.36C95.9974 222.27 99.3374 217.48 111.317 213.46Z" fill="#F0997A"/>
<path d="M182.749 88.36L181.749 88.23C178.399 87.88 173.939 87.8 171.249 88.69C167.769 89.85 166.569 91.13 164.539 91.18C162.339 91.18 160.889 89.95 156.789 88.84C153.449 87.96 147.789 88.12 143.289 88.59L141.859 88.75C141.369 88.8828 140.938 89.1774 140.637 89.5859C140.335 89.9943 140.181 90.4927 140.199 91C140.361 91.989 140.829 92.902 141.539 93.61C141.754 93.9328 141.91 94.2919 141.999 94.67C142.459 96.51 142.729 100.1 143.669 102.08C144.114 103.066 144.738 103.961 145.509 104.72C145.799 104.998 146.114 105.249 146.449 105.47L146.999 105.81C147.51 106.088 148.05 106.309 148.609 106.47L148.879 106.54L149.299 106.64L149.749 106.71C150.212 106.786 150.679 106.83 151.149 106.84H151.749H152.489C158.119 106.47 160.319 103.62 161.549 100.84C162.779 98.06 162.279 94.39 164.659 94.33H164.879C164.948 94.3196 165.019 94.3196 165.089 94.33C166.839 94.69 166.799 98.06 168.019 100.47C168.485 101.427 169.096 102.307 169.829 103.08C169.961 103.221 170.101 103.354 170.249 103.48L170.469 103.66L170.699 103.84L170.909 103.99L171.139 104.14L171.319 104.24L171.439 104.31C172.079 104.662 172.771 104.912 173.489 105.05H173.669C174.464 105.187 175.274 105.22 176.079 105.15C177.552 105.13 178.976 104.612 180.118 103.681C181.259 102.75 182.053 101.459 182.369 100.02C182.899 98.22 182.869 95.1 183.049 93.47C183.079 93.1697 183.182 92.8814 183.349 92.63C183.806 91.9349 184.053 91.1222 184.059 90.29C183.999 89.33 183.319 88.43 182.749 88.36ZM160.089 98.36C159.846 99.7835 159.24 101.12 158.329 102.24C157.567 103.07 156.639 103.729 155.605 104.176C154.571 104.622 153.455 104.845 152.329 104.83C151.18 104.969 150.014 104.807 148.947 104.36C147.879 103.913 146.946 103.196 146.239 102.28C146.169 102.19 146.109 102.09 146.049 102C145.982 101.915 145.922 101.825 145.869 101.73C145.811 101.648 145.761 101.561 145.719 101.47L145.589 101.24L145.499 101.05C145.468 100.995 145.441 100.939 145.419 100.88C145.419 100.79 145.329 100.7 145.289 100.6C145.179 100.32 145.079 100.05 144.989 99.78C144.939 99.62 144.889 99.45 144.849 99.29C144.809 99.13 144.699 98.74 144.649 98.5V98.35C144.649 98.35 144.649 98.26 144.649 98.21C144.219 96.27 143.719 92.48 144.729 91.62C145.739 90.76 148.309 89.86 152.449 90.2H152.889C153.51 90.2617 154.128 90.3585 154.739 90.49C154.979 90.49 155.219 90.59 155.459 90.65C156.063 90.7898 156.658 90.9702 157.239 91.19L157.789 91.4C157.999 91.48 158.189 91.58 158.379 91.67L158.499 91.73L158.709 91.84C159.172 92.0626 159.584 92.3793 159.919 92.77C160.619 93.85 160.469 96.24 160.089 98.33V98.36ZM181.479 96.71C181.339 98.07 181.029 101.06 178.689 102.52C177.902 103 177.009 103.275 176.089 103.32C175.012 103.48 173.913 103.338 172.912 102.911C171.911 102.484 171.048 101.788 170.419 100.9L170.309 100.74C170.264 100.68 170.224 100.616 170.189 100.55C170.162 100.519 170.139 100.486 170.119 100.45L169.959 100.17L169.789 99.84C169.789 99.78 169.739 99.73 169.719 99.67C169.715 99.6401 169.715 99.6099 169.719 99.58C169.695 99.5387 169.674 99.4952 169.659 99.45V99.34C169.486 98.9032 169.343 98.4556 169.229 98C168.729 96 168.399 93.7 169.029 92.59C169.659 91.48 172.249 90.28 174.729 89.92C175.299 89.84 175.829 89.79 176.329 89.77H177.469H177.729L178.159 89.82C178.428 89.8495 178.695 89.8963 178.959 89.96H179.139H179.189H179.319H179.509L179.749 90.04L180.129 90.19H180.199C180.517 90.3301 180.813 90.5154 181.079 90.74C181.749 91.61 181.649 95 181.479 96.68V96.71Z" fill="#37474F"/>
<path d="M141.119 89.63L128.299 98C129.672 98.1989 130.958 98.7931 131.999 99.71L141.839 93.01L141.119 89.63Z" fill="#37474F"/>
<path d="M172.378 105.44L164.578 109.35L162.578 96.95C162.609 96.482 162.735 96.0251 162.948 95.6073C163.161 95.1894 163.457 94.8195 163.818 94.52L172.378 105.44Z" fill="#F0997A"/>
<path opacity="0.9" d="M80.4696 300.41L80.3596 300.36L77.3596 298.59C76.9555 298.357 76.6095 298.035 76.348 297.649C76.0864 297.262 75.916 296.822 75.8496 296.36C75.8496 296.22 75.8496 296.08 75.8496 295.94V290.88C75.8852 289.764 76.2315 288.68 76.8496 287.75L80.4096 289.8C79.7303 291.096 79.4059 292.548 79.4696 294.01V298.67C79.4754 298.913 79.5228 299.153 79.6096 299.38C79.7691 299.812 80.0729 300.176 80.4696 300.41Z" fill="#263238"/>
<path opacity="0.6" d="M229.4 204.24C229.081 204.119 228.737 204.078 228.399 204.121C228.06 204.165 227.738 204.292 227.46 204.49L82.3603 288C82.0789 288.168 81.8114 288.359 81.5603 288.57C81.3883 288.71 81.2278 288.864 81.0803 289.03C80.8313 289.281 80.6162 289.563 80.4403 289.87L76.8203 287.79C77.0008 287.5 77.2049 287.226 77.4303 286.97L77.6603 286.72L77.9003 286.49L78.1503 286.28C78.3148 286.148 78.4886 286.027 78.6703 285.92L223.78 202.4C224.079 202.181 224.432 202.049 224.801 202.019C225.17 201.989 225.54 202.062 225.87 202.23C226.4 202.55 228.78 203.91 229.4 204.24Z" fill="#455A64"/>
<path d="M90.3789 291.38V287.83C90.3789 287.57 90.5389 287.3 90.6989 287.3H93.8289C94.0289 287.3 94.0289 287.75 93.8289 287.99L90.6989 291.56C90.5389 291.71 90.3789 291.63 90.3789 291.38Z" fill="white"/>
<path d="M97.6602 287.17V283.62C97.6602 283.37 97.8202 283.1 97.9802 283.1H101.11C101.31 283.1 101.31 283.55 101.11 283.78L98.0002 287.33C97.8202 287.51 97.6602 287.43 97.6602 287.17Z" fill="white"/>
<path d="M101.5 285.32C101.37 285.4 101.26 285.32 101.26 285.14V281.5C101.262 281.41 101.285 281.322 101.326 281.242C101.368 281.162 101.427 281.093 101.5 281.04C101.63 280.97 101.74 281.04 101.74 281.22V284.87C101.737 284.958 101.715 285.045 101.673 285.123C101.631 285.201 101.572 285.269 101.5 285.32Z" fill="white"/>
<path d="M86.6991 293.5V290C86.6991 289.75 86.5391 289.67 86.3791 289.84L83.2591 293.42C83.0491 293.66 83.0491 294.11 83.2591 294.11H86.3791C86.5391 294 86.6991 293.75 86.6991 293.5Z" fill="white"/>
<path d="M82.8591 296.08C82.9313 296.029 82.9906 295.961 83.0323 295.883C83.0739 295.805 83.0968 295.718 83.0991 295.63V292C83.0991 291.83 82.9891 291.75 82.8591 291.82C82.7867 291.873 82.7275 291.942 82.6859 292.022C82.6443 292.102 82.6214 292.19 82.6191 292.28V295.92C82.6191 296.08 82.7291 296.16 82.8591 296.08Z" fill="white"/>
<path d="M223.319 212.47C223.246 212.468 223.176 212.437 223.124 212.385C223.072 212.333 223.042 212.263 223.039 212.19V210.57C223.04 210.521 223.054 210.474 223.078 210.432C223.103 210.39 223.138 210.355 223.179 210.33L224.479 209.58C224.543 209.543 224.618 209.533 224.69 209.552C224.761 209.571 224.822 209.617 224.859 209.68C224.877 209.711 224.889 209.745 224.893 209.78C224.898 209.816 224.895 209.851 224.886 209.886C224.877 209.92 224.861 209.952 224.839 209.981C224.817 210.009 224.79 210.032 224.759 210.05L223.589 210.73V212.19C223.589 212.263 223.561 212.332 223.511 212.385C223.46 212.437 223.392 212.467 223.319 212.47Z" fill="white"/>
<path d="M226.86 210.42C226.787 210.42 226.717 210.392 226.665 210.342C226.613 210.291 226.582 210.223 226.58 210.15V209L225.7 209.51C225.636 209.547 225.56 209.557 225.489 209.538C225.418 209.519 225.357 209.473 225.32 209.41C225.302 209.379 225.29 209.345 225.285 209.31C225.281 209.274 225.283 209.239 225.293 209.204C225.302 209.17 225.318 209.138 225.34 209.109C225.361 209.081 225.389 209.058 225.42 209.04L226.72 208.29C226.762 208.265 226.81 208.253 226.86 208.253C226.909 208.253 226.957 208.265 227 208.29C227.04 208.313 227.073 208.347 227.096 208.387C227.119 208.428 227.13 208.474 227.13 208.52V210.15C227.13 210.222 227.101 210.29 227.051 210.341C227 210.392 226.931 210.42 226.86 210.42Z" fill="white"/>
<path d="M225.56 214.24C225.513 214.241 225.465 214.229 225.423 214.206C225.381 214.183 225.346 214.15 225.32 214.11C225.284 214.046 225.274 213.971 225.292 213.9C225.311 213.828 225.357 213.768 225.42 213.73L226.58 213.06V211.59C226.583 211.517 226.614 211.449 226.666 211.398C226.718 211.348 226.788 211.32 226.86 211.32C226.932 211.32 227.001 211.348 227.051 211.399C227.102 211.45 227.13 211.518 227.13 211.59V213.22C227.131 213.268 227.119 213.315 227.096 213.357C227.074 213.399 227.041 213.434 227 213.46L225.7 214.21L225.56 214.24Z" fill="white"/>
<path d="M223.319 215.54C223.273 215.55 223.225 215.55 223.179 215.54C223.138 215.515 223.103 215.48 223.078 215.438C223.054 215.396 223.04 215.349 223.039 215.3V213.68C223.042 213.607 223.072 213.537 223.124 213.485C223.176 213.433 223.246 213.402 223.319 213.4C223.392 213.403 223.46 213.433 223.511 213.485C223.561 213.538 223.589 213.607 223.589 213.68V214.82L224.479 214.31C224.511 214.286 224.547 214.269 224.586 214.26C224.624 214.251 224.664 214.25 224.703 214.258C224.742 214.266 224.779 214.281 224.811 214.305C224.844 214.328 224.871 214.357 224.891 214.391C224.911 214.426 224.923 214.464 224.927 214.503C224.932 214.543 224.927 214.583 224.915 214.62C224.902 214.658 224.882 214.693 224.855 214.722C224.828 214.751 224.796 214.774 224.759 214.79L223.459 215.54C223.413 215.549 223.365 215.549 223.319 215.54Z" fill="white"/>
<path d="M134.37 264.81V263L106.88 278.88C106.62 279.026 106.398 279.232 106.233 279.481C106.068 279.729 105.964 280.014 105.93 280.31C105.93 280.8 106.35 280.95 106.88 280.64L134.37 264.81Z" fill="#3F8CFE"/>
<path opacity="0.5" d="M212.289 218.13C212.158 218.153 212.033 218.201 211.919 218.27L134.369 263V264.77L211.919 220C212.191 219.841 212.424 219.622 212.599 219.36C212.678 219.233 212.745 219.099 212.799 218.96C212.847 218.835 212.87 218.703 212.869 218.57C212.873 218.498 212.859 218.427 212.829 218.362C212.799 218.297 212.753 218.24 212.696 218.196C212.638 218.153 212.572 218.124 212.501 218.113C212.43 218.101 212.357 218.107 212.289 218.13Z" fill="white"/>
<path d="M135.75 263.25C135.738 263.765 135.607 264.27 135.367 264.726C135.128 265.182 134.787 265.577 134.37 265.88C133.61 266.31 133 265.88 133 264.83C133.007 264.317 133.135 263.812 133.373 263.357C133.611 262.902 133.952 262.509 134.37 262.21C135.12 261.77 135.75 262.23 135.75 263.25Z" fill="#3F8CFE"/>
<path opacity="0.5" d="M135.75 263.25C135.738 263.765 135.607 264.27 135.367 264.726C135.128 265.182 134.787 265.577 134.37 265.88C133.61 266.31 133 265.88 133 264.83C133.007 264.317 133.135 263.812 133.373 263.357C133.611 262.902 133.952 262.509 134.37 262.21C135.12 261.77 135.75 262.23 135.75 263.25Z" fill="white"/>
<path d="M135.26 263.53C135.254 263.863 135.17 264.19 135.016 264.485C134.861 264.78 134.64 265.035 134.37 265.23C133.88 265.51 133.48 265.23 133.48 264.55C133.486 264.218 133.57 263.893 133.724 263.599C133.879 263.306 134.1 263.052 134.37 262.86C134.86 262.58 135.26 262.87 135.26 263.53Z" fill="#3F8CFE"/>
</svg>
