<svg width="194" height="189" viewBox="0 0 194 189" fill="none" xmlns="http://www.w3.org/2000/svg">
<path d="M179.751 146.74L110.161 186.04L3.29102 124.71L72.871 85.41L179.751 146.74Z" fill="#3F8CFE"/>
<path opacity="0.6" d="M179.751 146.74L110.161 186.04L3.29102 124.71L72.871 85.41L179.751 146.74Z" fill="black"/>
<path d="M109.401 183.17L176.651 145C174.981 140.26 175.101 138.82 177.001 132.51L110.161 170.33C110.161 170.33 108.941 170.2 109.401 183.17Z" fill="#F5F5F5"/>
<path d="M113.419 165.11C111.634 166.264 110.146 167.824 109.079 169.663C108.012 171.502 107.395 173.567 107.279 175.69V184C107.279 187.89 110.029 189.47 113.419 187.53L179.739 149.85V146.79L114.259 183.79C112.259 184.95 110.569 184.01 110.579 181.67L110.629 174.31C110.703 173.035 111.077 171.796 111.72 170.692C112.363 169.589 113.257 168.653 114.329 167.96L179.729 130.96V127.49L113.419 165.11Z" fill="#3F8CFE"/>
<path opacity="0.5" d="M113.419 165.11C111.634 166.264 110.146 167.824 109.079 169.663C108.012 171.502 107.395 173.567 107.279 175.69V184C107.279 187.89 110.029 189.47 113.419 187.53L179.739 149.85V146.79L114.259 183.79C112.259 184.95 110.569 184.01 110.579 181.67L110.629 174.31C110.703 173.035 111.077 171.796 111.72 170.692C112.363 169.589 113.257 168.653 114.329 167.96L179.729 130.96V127.49L113.419 165.11Z" fill="black"/>
<path d="M179.74 127.44L72.8701 66.11L6.56015 103.78C4.77362 104.934 3.28523 106.494 2.21643 108.332C1.14763 110.171 0.528697 112.237 0.410156 114.36V122.63C0.410156 124.57 1.09014 125.94 2.21014 126.58L109.08 187.9C107.96 187.26 107.28 185.9 107.28 183.96V175.68C107.398 173.558 108.016 171.493 109.083 169.655C110.15 167.816 111.636 166.256 113.42 165.1L179.74 127.44Z" fill="#3F8CFE"/>
<path opacity="0.35" d="M179.74 127.44L72.8701 66.11L6.56015 103.78C4.77362 104.934 3.28523 106.494 2.21643 108.332C1.14763 110.171 0.528697 112.237 0.410156 114.36V122.63C0.410156 124.57 1.09014 125.94 2.21014 126.58L109.08 187.9C107.96 187.26 107.28 185.9 107.28 183.96V175.68C107.398 173.558 108.016 171.493 109.083 169.655C110.15 167.816 111.636 166.256 113.42 165.1L179.74 127.44Z" fill="black"/>
<path d="M109.07 169.66C107.97 171.475 107.351 173.54 107.27 175.66V184C107.27 185.94 107.95 187.3 109.07 187.94L2.21014 126.58C1.09014 125.94 0.410156 124.58 0.410156 122.63V114.36C0.490736 112.24 1.11021 110.175 2.21014 108.36L109.07 169.66Z" fill="#3F8CFE"/>
<path opacity="0.45" d="M109.07 169.66C107.97 171.475 107.351 173.54 107.27 175.66V184C107.27 185.94 107.95 187.3 109.07 187.94L2.21014 126.58C1.09014 125.94 0.410156 124.58 0.410156 122.63V114.36C0.490736 112.24 1.11021 110.175 2.21014 108.36L109.07 169.66Z" fill="black"/>
<path d="M16.6504 116.54C14.6504 125.19 14.6504 128.54 16.6504 134.91L21.7304 137.85C19.7304 131.51 19.7304 128.13 21.7304 119.48L16.6504 116.54Z" fill="#3F8CFE"/>
<path d="M86.7402 156.82C84.7402 165.47 84.7402 168.74 86.7402 175.08L91.8302 178.02C89.8302 171.67 89.8302 168.4 91.8302 159.76L86.7402 156.82Z" fill="#3F8CFE"/>
<path d="M193.79 126.41L124.2 165.71L17.3301 104.38L86.9101 65.08L193.79 126.41Z" fill="#3F8CFE"/>
<path opacity="0.4" d="M193.79 126.41L124.2 165.71L17.3301 104.38L86.9101 65.08L193.79 126.41Z" fill="black"/>
<path d="M123.439 162.83L190.689 124.63C189.019 119.89 189.139 117.77 191.029 111.46L124.199 149.27C124.199 149.27 122.999 149.86 123.439 162.83Z" fill="#F5F5F5"/>
<path d="M127.459 144.09C125.673 145.244 124.185 146.805 123.116 148.643C122.047 150.482 121.428 152.547 121.309 154.67V163.62C121.309 167.51 124.059 169.09 127.459 167.14L193.779 129.47V126.41L128.299 163.41C126.299 164.58 124.609 163.63 124.609 161.3L124.669 153.3C124.741 152.026 125.112 150.787 125.754 149.683C126.395 148.58 127.287 147.643 128.359 146.95L193.769 109.95V106.48L127.459 144.09Z" fill="#3F8CFE"/>
<path opacity="0.25" d="M127.459 144.09C125.673 145.244 124.185 146.805 123.116 148.643C122.047 150.482 121.428 152.547 121.309 154.67V163.62C121.309 167.51 124.059 169.09 127.459 167.14L193.779 129.47V126.41L128.299 163.41C126.299 164.58 124.609 163.63 124.609 161.3L124.669 153.3C124.741 152.026 125.112 150.787 125.754 149.683C126.395 148.58 127.287 147.643 128.359 146.95L193.769 109.95V106.48L127.459 144.09Z" fill="black"/>
<path d="M193.779 106.43L86.9092 45.1L20.5892 82.77C18.8034 83.9238 17.3161 85.4839 16.249 87.3228C15.1818 89.1617 14.5651 91.2271 14.4492 93.35V102.35C14.4492 104.29 15.1292 105.65 16.2492 106.29L123.119 167.62C121.999 166.98 121.319 165.62 121.319 163.67V154.72C121.435 152.597 122.052 150.532 123.119 148.693C124.186 146.854 125.673 145.294 127.459 144.14L193.779 106.43Z" fill="#3F8CFE"/>
<path d="M123.109 148.65C122.007 150.464 121.387 152.529 121.309 154.65V163.6C121.309 165.54 121.989 166.91 123.109 167.55L16.2492 106.24C15.1292 105.6 14.4492 104.24 14.4492 102.3V93.3C14.5272 91.1791 15.1468 89.1135 16.2492 87.3L123.109 148.65Z" fill="#3F8CFE"/>
<path opacity="0.15" d="M123.109 148.65C122.007 150.464 121.387 152.529 121.309 154.65V163.6C121.309 165.54 121.989 166.91 123.109 167.55L16.2492 106.24C15.1292 105.6 14.4492 104.24 14.4492 102.3V93.3C14.5272 91.1791 15.1468 89.1135 16.2492 87.3L123.109 148.65Z" fill="black"/>
<path d="M30.6797 95.52C28.6797 104.17 28.6797 108.24 30.6797 114.58L35.7697 117.52C33.7697 111.17 33.7697 107.11 35.7697 98.46L30.6797 95.52Z" fill="#3F8CFE"/>
<path d="M100.779 135.85C98.7793 144.5 98.7793 148.42 100.779 154.76L105.869 157.7C103.869 151.36 103.869 147.41 105.869 138.76L100.779 135.85Z" fill="#3F8CFE"/>
<g opacity="0.4">
<path d="M30.6797 95.52C28.6797 104.17 28.6797 108.24 30.6797 114.58L35.7697 117.52C33.7697 111.17 33.7697 107.11 35.7697 98.46L30.6797 95.52Z" fill="white"/>
<path d="M100.779 135.85C98.7793 144.5 98.7793 148.42 100.779 154.76L105.869 157.7C103.869 151.36 103.869 147.41 105.869 138.76L100.779 135.85Z" fill="white"/>
</g>
<path d="M46.8516 51.93V92.63C46.8516 98.49 52.0016 104.35 62.2216 108.82C82.7016 117.82 115.912 117.82 136.392 108.82C146.642 104.33 151.752 98.46 151.752 92.58V51.93C151.872 45.93 146.752 40.03 136.402 35.49C115.922 26.49 82.7116 26.49 62.2316 35.49C51.8516 40 46.7415 46 46.8615 51.93H46.8516Z" fill="#37474F"/>
<path d="M46.8618 51.93C46.7418 45.93 51.8618 40.03 62.2218 35.49C82.7018 26.49 115.912 26.49 136.392 35.49C146.752 40.03 151.862 45.98 151.742 51.93V70.52C151.742 65.91 147.652 62.61 135.542 67.07C115.692 74.38 104.542 86.45 84.3018 92.42C67.5618 97.35 52.7318 95.42 46.8418 89.29V51.93H46.8618Z" fill="#263238"/>
<path d="M46.8516 73.47V78.09C46.8516 83.94 52.0016 89.81 62.2216 94.27C82.7016 103.27 115.912 103.27 136.392 94.27C146.712 89.76 151.822 83.82 151.752 77.9V73.43C151.752 79.3 146.642 85.17 136.392 89.67C115.912 98.67 82.7016 98.67 62.2216 89.67C52.0016 85.19 46.8816 79.34 46.8516 73.47Z" fill="#3F8CFE"/>
<path d="M181.711 38.95L99.3008 0.0200195L16.8809 38.95V45.44L99.3008 80.05L181.711 45.44V38.95Z" fill="#37474F"/>
<path opacity="0.2" d="M99.3008 80.05V73.56L181.711 38.95V45.44L99.3008 80.05Z" fill="#3F8CFE"/>
<path opacity="0.2" d="M99.3008 73.56L180.531 40.88L181.711 45.44V38.95L99.3008 73.56Z" fill="#3F8CFE"/>
<path d="M99.3008 0.0200195L16.8809 38.95L99.3008 73.56L181.711 38.95L99.3008 0.0200195Z" fill="#455A64"/>
<path d="M55.1101 70.83C55.1101 70.29 54.8501 57.64 56.1101 54.04C57.3701 50.44 62.0501 46.79 71.8201 41.83C78.8051 38.3045 86.1693 35.587 93.7701 33.73L94.1701 35.53C86.7177 37.3483 79.4976 40.0122 72.6501 43.47C63.4701 48.13 58.9101 51.58 57.8601 54.64C56.9201 57.37 56.9101 67.22 56.9901 70.79L55.1101 70.83Z" fill="#3F8CFE"/>
<path opacity="0.8" d="M55.1101 70.83C55.1101 70.29 54.8501 57.64 56.1101 54.04C57.3701 50.44 62.0501 46.79 71.8201 41.83C78.8051 38.3045 86.1693 35.587 93.7701 33.73L94.1701 35.53C86.7177 37.3483 79.4976 40.0122 72.6501 43.47C63.4701 48.13 58.9101 51.58 57.8601 54.64C56.9201 57.37 56.9101 67.22 56.9901 70.79L55.1101 70.83Z" fill="white"/>
<path d="M65.8212 109.52C65.8212 100.05 64.2512 83.09 59.2812 78.16H52.7312C47.7312 83.09 46.2012 100.05 46.2012 109.52C46.2012 110.97 47.1512 112.42 49.0712 113.52C51.2201 114.611 53.5961 115.18 56.0062 115.18C58.4162 115.18 60.7922 114.611 62.9412 113.52C64.8612 112.41 65.8212 110.96 65.8212 109.52Z" fill="#3F8CFE"/>
<path opacity="0.5" d="M65.8212 109.52C65.8212 100.05 64.2512 83.09 59.2812 78.16H52.7312C47.7312 83.09 46.2012 100.05 46.2012 109.52C46.2012 110.97 47.1512 112.42 49.0712 113.52C51.2201 114.611 53.5961 115.18 56.0062 115.18C58.4162 115.18 60.7922 114.611 62.9412 113.52C64.8612 112.41 65.8212 110.96 65.8212 109.52Z" fill="white"/>
<path opacity="0.6" d="M52.7314 78.16C52.3379 78.5662 51.983 79.0081 51.6714 79.48C52.9214 80.8 54.8413 81.14 56.7513 81.29C58.6613 81.44 60.6513 82.99 61.5013 90.76C62.3513 98.53 64.0014 108.45 60.9214 111.46C57.8414 114.47 50.9713 114.46 47.3613 112.2C47.8646 112.723 48.4405 113.171 49.0714 113.53C51.2203 114.621 53.5963 115.19 56.0063 115.19C58.4164 115.19 60.7924 114.621 62.9413 113.53C64.8613 112.42 65.8214 110.97 65.8214 109.53C65.8214 100.06 64.2513 83.1 59.2813 78.17L52.7314 78.16Z" fill="#3F8CFE"/>
<path d="M60.9201 74.71C60.9201 75.6835 60.6313 76.6351 60.0902 77.4444C59.5491 78.2537 58.7802 78.8843 57.8806 79.2564C56.981 79.6285 55.9912 79.7254 55.0366 79.5347C54.0819 79.3441 53.2052 78.8745 52.5176 78.1854C51.8299 77.4963 51.3621 76.6187 51.1734 75.6637C50.9847 74.7086 51.0836 73.7191 51.4575 72.8202C51.8314 71.9214 52.4635 71.1537 53.274 70.6143C54.0844 70.0749 55.0366 69.788 56.0101 69.79C56.6557 69.79 57.295 69.9173 57.8914 70.1647C58.4877 70.4121 59.0295 70.7746 59.4855 71.2316C59.9416 71.6886 60.3031 72.2311 60.5492 72.828C60.7954 73.4248 60.9214 74.0644 60.9201 74.71Z" fill="#3F8CFE"/>
<path opacity="0.5" d="M60.9201 74.71C60.9201 75.6835 60.6313 76.6351 60.0902 77.4444C59.5491 78.2537 58.7802 78.8843 57.8806 79.2564C56.981 79.6285 55.9912 79.7254 55.0366 79.5347C54.0819 79.3441 53.2052 78.8745 52.5176 78.1854C51.8299 77.4963 51.3621 76.6187 51.1734 75.6637C50.9847 74.7086 51.0836 73.7191 51.4575 72.8202C51.8314 71.9214 52.4635 71.1537 53.274 70.6143C54.0844 70.0749 55.0366 69.788 56.0101 69.79C56.6557 69.79 57.295 69.9173 57.8914 70.1647C58.4877 70.4121 59.0295 70.7746 59.4855 71.2316C59.9416 71.6886 60.3031 72.2311 60.5492 72.828C60.7954 73.4248 60.9214 74.0644 60.9201 74.71Z" fill="white"/>
<path opacity="0.4" d="M58.8618 70.72C59.2217 71.2113 59.4772 71.771 59.6125 72.3648C59.7478 72.9585 59.7601 73.5737 59.6486 74.1724C59.5371 74.771 59.3042 75.3405 58.9642 75.8458C58.6243 76.351 58.1844 76.7813 57.6718 77.11C56.6851 77.757 55.4949 78.0188 54.3278 77.8454C53.1607 77.6721 52.0979 77.0758 51.3418 76.17C51.5733 76.9125 51.9782 77.5892 52.523 78.1442C53.0678 78.6992 53.7369 79.1166 54.475 79.3617C55.2131 79.6069 55.9989 79.6729 56.7675 79.5542C57.5361 79.4355 58.2654 79.1356 58.8952 78.6792C59.5249 78.2228 60.037 77.6231 60.389 76.9296C60.741 76.2361 60.9229 75.4688 60.9197 74.6911C60.9164 73.9133 60.7281 73.1476 60.3702 72.457C60.0124 71.7665 59.4953 71.1711 58.8618 70.72Z" fill="#3F8CFE"/>
<path d="M92.6699 31.38C92.7264 30.7988 92.9356 30.2429 93.2763 29.7688C93.617 29.2946 94.0771 28.9189 94.6099 28.68C96.0623 27.9453 97.6672 27.5626 99.2949 27.5626C100.923 27.5626 102.527 27.9453 103.98 28.68C104.513 28.9189 104.973 29.2946 105.314 29.7688C105.654 30.2429 105.863 30.7988 105.92 31.38V33.55C105.864 34.1315 105.656 34.6878 105.315 35.1622C104.974 35.6365 104.513 36.0119 103.98 36.25C102.527 36.9847 100.923 37.3674 99.2949 37.3674C97.6672 37.3674 96.0623 36.9847 94.6099 36.25C94.0765 36.0119 93.6159 35.6365 93.2751 35.1622C92.9342 34.6878 92.7254 34.1315 92.6699 33.55V31.38Z" fill="#263238"/>
<path d="M104 34.09C106.59 32.59 106.59 30.17 104 28.68C102.548 27.9453 100.943 27.5626 99.3153 27.5626C97.6876 27.5626 96.0828 27.9453 94.6303 28.68C92.0503 30.17 92.0503 32.59 94.6303 34.09C96.0828 34.8246 97.6876 35.2074 99.3153 35.2074C100.943 35.2074 102.548 34.8246 104 34.09Z" fill="#37474F"/>
</svg>
