<svg width="1008" height="1182" viewBox="0 0 1008 1182" fill="none" xmlns="http://www.w3.org/2000/svg">
<mask id="mask0_37_296" style="mask-type:luminance" maskUnits="userSpaceOnUse" x="0" y="0" width="1008" height="1182">
<path d="M1007.4 1181.4L0 1181.4L0.000103281 -5.7552e-05L1007.4 3.05176e-05L1007.4 1181.4Z" fill="white"/>
</mask>
<g mask="url(#mask0_37_296)">
<path fill-rule="evenodd" clip-rule="evenodd" d="M1006.45 -156.207C997.238 114.273 919.25 424.687 618.047 494.527C524.008 516.332 421.758 503.519 330.969 538.363C107.418 624.156 16.2187 1307.67 -246.133 1159.8C-327.703 1113.82 -376.902 1029.95 -401.73 941.824C-414.121 897.871 -421 857.594 -424.902 812.289C-432.992 718.269 -426.312 622.715 -417.531 528.992C-389.75 232.422 -327.711 -145.457 -17.7811 -273.293C86.879 -316.461 206.899 -314.789 317.91 -330.609L1006.45 -156.207Z" fill="#C5DDFF"/>
</g>
</svg>
